<?xml version="1.0" encoding="UTF-8" standalone="no"?>
<!-- Created with Inkscape (http://www.inkscape.org/) -->

<svg
   xmlns:osb="http://www.openswatchbook.org/uri/2009/osb"
   xmlns:dc="http://purl.org/dc/elements/1.1/"
   xmlns:cc="http://creativecommons.org/ns#"
   xmlns:rdf="http://www.w3.org/1999/02/22-rdf-syntax-ns#"
   xmlns:svg="http://www.w3.org/2000/svg"
   xmlns="http://www.w3.org/2000/svg"
   xmlns:xlink="http://www.w3.org/1999/xlink"
   xmlns:sodipodi="http://sodipodi.sourceforge.net/DTD/sodipodi-0.dtd"
   xmlns:inkscape="http://www.inkscape.org/namespaces/inkscape"
   width="526.57397"
   height="222.00002"
   id="svg2"
   version="1.1"
   inkscape:version="0.48.5 r10040"
   sodipodi:docname="round_distributed_programming.svg"
   inkscape:export-filename="/Users/skonno/Src/round/doc/img/round_distributed_programming.png"
   inkscape:export-xdpi="120.05035"
   inkscape:export-ydpi="120.05035">
  <defs
     id="defs4">
    <marker
       inkscape:stockid="TriangleInM"
       orient="auto"
       refY="0"
       refX="0"
       id="TriangleInM"
       style="overflow:visible">
      <path
         id="path4064"
         d="m 5.77,0 -8.65,5 0,-10 8.65,5 z"
         style="fill-rule:evenodd;stroke:#000000;stroke-width:1pt"
         transform="scale(-0.4,-0.4)"
         inkscape:connector-curvature="0" />
    </marker>
    <marker
       inkscape:stockid="TriangleOutL"
       orient="auto"
       refY="0"
       refX="0"
       id="TriangleOutL"
       style="overflow:visible">
      <path
         id="path4823"
         d="m 5.77,0 -8.65,5 0,-10 8.65,5 z"
         style="fill-rule:evenodd;stroke:#000000;stroke-width:1pt"
         transform="scale(0.8,0.8)"
         inkscape:connector-curvature="0" />
    </marker>
    <marker
       inkscape:stockid="TriangleOutM"
       orient="auto"
       refY="0"
       refX="0"
       id="TriangleOutM"
       style="overflow:visible">
      <path
         id="path4826"
         d="m 5.77,0 -8.65,5 0,-10 8.65,5 z"
         style="fill-rule:evenodd;stroke:#000000;stroke-width:1pt"
         transform="scale(0.4,0.4)"
         inkscape:connector-curvature="0" />
    </marker>
    <inkscape:perspective
       sodipodi:type="inkscape:persp3d"
       inkscape:vp_x="0 : 110.5 : 1"
       inkscape:vp_y="0 : 1000 : 0"
       inkscape:vp_z="478 : 110.5 : 1"
       inkscape:persp3d-origin="239 : 73.666667 : 1"
       id="perspective3029" />
    <marker
       inkscape:stockid="TriangleOutS"
       orient="auto"
       refY="0"
       refX="0"
       id="TriangleOutS"
       style="overflow:visible">
      <path
         id="path4045"
         d="m 5.77,0 -8.65,5 0,-10 8.65,5 z"
         style="fill-rule:evenodd;stroke:#000000;stroke-width:1pt"
         transform="scale(0.2,0.2)"
         inkscape:connector-curvature="0" />
    </marker>
    <marker
       inkscape:stockid="Arrow1Mend"
       orient="auto"
       refY="0"
       refX="0"
       id="Arrow1Mend"
       style="overflow:visible">
      <path
         id="path3906"
         d="M 0,0 5,-5 -12.5,0 5,5 0,0 z"
         style="fill-rule:evenodd;stroke:#000000;stroke-width:1pt"
         transform="matrix(-0.4,0,0,-0.4,-4,0)"
         inkscape:connector-curvature="0" />
    </marker>
    <marker
       inkscape:stockid="Arrow1Lend"
       orient="auto"
       refY="0"
       refX="0"
       id="Arrow1Lend"
       style="overflow:visible">
      <path
         id="path3900"
         d="M 0,0 5,-5 -12.5,0 5,5 0,0 z"
         style="fill-rule:evenodd;stroke:#000000;stroke-width:1pt"
         transform="matrix(-0.8,0,0,-0.8,-10,0)"
         inkscape:connector-curvature="0" />
    </marker>
    <marker
       inkscape:stockid="Arrow2Lend"
       orient="auto"
       refY="0"
       refX="0"
       id="Arrow2Lend"
       style="overflow:visible">
      <path
         id="path3918"
         style="fill-rule:evenodd;stroke-width:0.625;stroke-linejoin:round"
         d="M 8.7185878,4.0337352 -2.2072895,0.01601326 8.7185884,-4.0017078 c -1.7454984,2.3720609 -1.7354408,5.6174519 -6e-7,8.035443 z"
         transform="matrix(-1.1,0,0,-1.1,-1.1,0)"
         inkscape:connector-curvature="0" />
    </marker>
    <marker
       inkscape:stockid="Arrow1Send"
       orient="auto"
       refY="0"
       refX="0"
       id="Arrow1Send"
       style="overflow:visible">
      <path
         id="path3912"
         d="M 0,0 5,-5 -12.5,0 5,5 0,0 z"
         style="fill-rule:evenodd;stroke:#000000;stroke-width:1pt"
         transform="matrix(-0.2,0,0,-0.2,-1.2,0)"
         inkscape:connector-curvature="0" />
    </marker>
    <linearGradient
       id="linearGradient5205"
       osb:paint="solid">
      <stop
         style="stop-color:#370000;stop-opacity:1;"
         offset="0"
         id="stop5207" />
    </linearGradient>
    <linearGradient
       id="linearGradient907"
       xlink:href="#linearGradient900" />
    <linearGradient
       id="linearGradient906"
       xlink:href="#linearGradient900" />
    <linearGradient
       id="linearGradient905"
       xlink:href="#linearGradient900" />
    <linearGradient
       id="linearGradient904"
       xlink:href="#linearGradient900" />
    <linearGradient
       id="linearGradient903"
       xlink:href="#linearGradient900" />
    <linearGradient
       id="linearGradient900">
      <stop
         offset="0"
         id="stop901"
         style="stop-color: #000000;stop-opacity: 1.0;" />
      <stop
         offset="1"
         id="stop902"
         style="stop-color:#ffffff;stop-opacity:1;" />
    </linearGradient>
    <linearGradient
       id="linearGradient775"
       xlink:href="#linearGradient772" />
    <linearGradient
       id="linearGradient772">
      <stop
         offset="0"
         id="stop773"
         style="stop-color: #000000;stop-opacity: 1.0;" />
      <stop
         offset="1"
         id="stop774"
         style="stop-color:#ffffff;stop-opacity:1;" />
    </linearGradient>
    <linearGradient
       id="linearGradient907-9"
       xlink:href="#linearGradient900-2" />
    <linearGradient
       id="linearGradient906-7"
       xlink:href="#linearGradient900-2" />
    <linearGradient
       id="linearGradient905-2"
       xlink:href="#linearGradient900-2" />
    <linearGradient
       id="linearGradient904-9"
       xlink:href="#linearGradient900-2" />
    <linearGradient
       id="linearGradient903-7"
       xlink:href="#linearGradient900-2" />
    <linearGradient
       id="linearGradient900-2">
      <stop
         offset="0"
         id="stop901-5"
         style="stop-color: #000000;stop-opacity: 1.0;" />
      <stop
         offset="1"
         id="stop902-5"
         style="stop-color:#ffffff;stop-opacity:1;" />
    </linearGradient>
  </defs>
  <sodipodi:namedview
     id="base"
     pagecolor="#ffffff"
     bordercolor="#666666"
     borderopacity="1.0"
     inkscape:pageopacity="0.0"
     inkscape:pageshadow="2"
     inkscape:zoom="2.8284271"
     inkscape:cx="282.04082"
     inkscape:cy="94.877624"
     inkscape:document-units="px"
     inkscape:current-layer="layer1"
     showgrid="true"
     showguides="true"
     inkscape:window-width="1805"
     inkscape:window-height="969"
     inkscape:window-x="59"
     inkscape:window-y="0"
     inkscape:window-maximized="0"
     inkscape:snap-global="true"
     fit-margin-top="0"
     fit-margin-left="0"
     fit-margin-right="0"
     fit-margin-bottom="0"
     inkscape:guide-bbox="true">
    <inkscape:grid
       type="xygrid"
       id="grid2985"
       empspacing="5"
       visible="true"
       enabled="true"
       snapvisiblegridlinesonly="true"
       originx="140.57397px"
       originy="-468.99998px" />
  </sodipodi:namedview>
  <metadata
     id="metadata7">
    <rdf:RDF>
      <cc:Work
         rdf:about="">
        <dc:format>image/svg+xml</dc:format>
        <dc:type
           rdf:resource="http://purl.org/dc/dcmitype/StillImage" />
        <dc:title></dc:title>
      </cc:Work>
    </rdf:RDF>
  </metadata>
  <g
     inkscape:groupmode="layer"
     id="layer2"
     inkscape:label="Box"
     transform="translate(326.57397,-163.00002)">
    <rect
       style="fill:none;stroke:#000000;stroke-width:2;stroke-miterlimit:2.5956521;stroke-opacity:1;stroke-dasharray:none"
       id="rect3472"
       width="345.00003"
       height="220.00002"
       x="-236.00002"
       y="164.00002" />
    <rect
       y="279.70703"
       x="-204.72653"
       height="95.000015"
       width="283.8623"
       id="rect4074"
       style="fill:#dcdcdc;fill-opacity:1;stroke:#000000;stroke-width:2;stroke-miterlimit:2.5956521;stroke-opacity:1;stroke-dasharray:none;stroke-dashoffset:0" />
    <rect
       style="fill:#ffffff;fill-opacity:1;stroke:#000000;stroke-width:2;stroke-miterlimit:2.5956521;stroke-opacity:1;stroke-dasharray:none;stroke-dashoffset:0"
       id="rect4069"
       width="73.862305"
       height="65.12204"
       x="-189.72653"
       y="299.58499" />
    <rect
       y="299.88287"
       x="-100.53614"
       height="65.117134"
       width="74.86232"
       id="rect5920"
       style="fill:#ffffff;fill-opacity:1;stroke:#000000;stroke-width:2;stroke-miterlimit:2.5956521;stroke-opacity:1;stroke-dasharray:none;stroke-dashoffset:0" />
    <rect
       style="fill:#dcdcdc;fill-opacity:1;stroke:#000000;stroke-width:2;stroke-miterlimit:2.5956521;stroke-opacity:1;stroke-dasharray:none;stroke-dashoffset:0"
       id="rect3280"
       width="45"
       height="15"
       x="-79.673828"
       y="321.00485" />
    <rect
       style="fill:#dcdcdc;fill-opacity:1;stroke:#000000;stroke-width:2;stroke-miterlimit:2.5956521;stroke-opacity:1;stroke-dasharray:none;stroke-dashoffset:0"
       id="rect5922"
       width="45"
       height="15"
       x="-85.673828"
       y="316.00485" />
    <rect
       y="301.22565"
       x="-11.270473"
       height="63.4814"
       width="74.585945"
       id="rect3084"
       style="fill:#ffffff;fill-opacity:1;stroke:#000000;stroke-width:2;stroke-miterlimit:2.5956521;stroke-opacity:1;stroke-dasharray:none;stroke-dashoffset:0" />
    <rect
       style="fill:#dcdcdc;fill-opacity:1;stroke:#000000;stroke-width:2;stroke-miterlimit:2.5956521;stroke-opacity:1;stroke-dasharray:none;stroke-dashoffset:0"
       id="rect3086"
       width="45"
       height="15"
       x="4.7295275"
       y="309.22565" />
    <rect
       y="174.18559"
       x="-220.78688"
       height="49.999996"
       width="49.573982"
       id="rect3168"
       style="fill:#dcdcdc;fill-opacity:1;stroke:#000000;stroke-width:2;stroke-miterlimit:2.5956521;stroke-opacity:1;stroke-dasharray:none" />
    <rect
       style="fill:#dcdcdc;fill-opacity:1;stroke:#000000;stroke-width:2;stroke-miterlimit:2.5956521;stroke-opacity:1;stroke-dasharray:none"
       id="rect3227"
       width="119.57401"
       height="49.999996"
       x="-125.04667"
       y="173.6973" />
    <rect
       style="fill:#dcdcdc;fill-opacity:1;stroke:#000000;stroke-width:2;stroke-miterlimit:2.5956521;stroke-opacity:1;stroke-dasharray:none"
       id="rect5081"
       width="49.573982"
       height="49.999996"
       x="149.42603"
       y="175.00002" />
    <rect
       style="fill:#dcdcdc;fill-opacity:1;stroke:#000000;stroke-width:2;stroke-miterlimit:2.5956521;stroke-opacity:1;stroke-dasharray:none"
       id="rect5098"
       width="49.573982"
       height="49.999996"
       x="-325.57397"
       y="175.00003" />
    <rect
       y="310.00485"
       x="-90.673828"
       height="15"
       width="45"
       id="rect3262"
       style="fill:#dcdcdc;fill-opacity:1;stroke:#000000;stroke-width:2;stroke-miterlimit:2.5956521;stroke-opacity:1;stroke-dasharray:none;stroke-dashoffset:0" />
    <rect
       y="319.70703"
       x="-169.86423"
       height="15"
       width="45"
       id="rect4124"
       style="fill:#dcdcdc;fill-opacity:1;stroke:#000000;stroke-width:2;stroke-miterlimit:2.5956521;stroke-opacity:1;stroke-dasharray:none;stroke-dashoffset:0" />
    <rect
       y="314.70703"
       x="-175.86423"
       height="15"
       width="45"
       id="rect4126"
       style="fill:#dcdcdc;fill-opacity:1;stroke:#000000;stroke-width:2;stroke-miterlimit:2.5956521;stroke-opacity:1;stroke-dasharray:none;stroke-dashoffset:0" />
    <rect
       style="fill:#dcdcdc;fill-opacity:1;stroke:#000000;stroke-width:2;stroke-miterlimit:2.5956521;stroke-opacity:1;stroke-dasharray:none;stroke-dashoffset:0"
       id="rect4128"
       width="45"
       height="15"
       x="-180.86423"
       y="309.70703" />
    <rect
       y="340"
       x="-87"
       height="15"
       width="45"
       id="rect4156"
       style="fill:#ffffff;fill-opacity:1;stroke:#000000;stroke-width:2;stroke-miterlimit:2.5956521;stroke-opacity:1;stroke-dasharray:none;stroke-dashoffset:0" />
    <rect
       style="fill:#ffffff;fill-opacity:1;stroke:#000000;stroke-width:2;stroke-miterlimit:2.5956521;stroke-opacity:1;stroke-dasharray:none;stroke-dashoffset:0"
       id="rect4158"
       width="45"
       height="15"
       x="-175.86423"
       y="339.70703" />
    <rect
       style="fill:#ffffff;fill-opacity:1;stroke:#000000;stroke-width:2;stroke-miterlimit:2.5956521;stroke-opacity:1;stroke-dasharray:none;stroke-dashoffset:0"
       id="rect4168"
       width="45"
       height="15"
       x="5"
       y="339" />
    <rect
       y="199.00002"
       x="-93"
       height="15"
       width="45"
       id="rect4180"
       style="fill:#ffffff;fill-opacity:1;stroke:#000000;stroke-width:2;stroke-miterlimit:2.5956521;stroke-opacity:1;stroke-dasharray:none;stroke-dashoffset:0" />
    <rect
       y="174.00003"
       x="44"
       height="49.999996"
       width="49.573982"
       id="rect4016"
       style="fill:#dcdcdc;fill-opacity:1;stroke:#000000;stroke-width:2;stroke-miterlimit:2.5956521;stroke-opacity:1;stroke-dasharray:none" />
  </g>
  <g
     inkscape:label="Text"
     inkscape:groupmode="layer"
     id="layer1"
     transform="translate(140.57397,-361.36219)"
     style="display:inline">
    <g
       style="font-size:10px;font-style:normal;font-variant:normal;font-weight:normal;font-stretch:normal;text-align:start;line-height:125%;letter-spacing:0px;word-spacing:0px;writing-mode:lr-tb;text-anchor:start;fill:#000000;fill-opacity:1;stroke:none;font-family:Arial;-inkscape-font-specification:Arial"
       id="text5928"
       transform="translate(-93.53613,50.88281)">
      <path
         d="m 183.79102,442.36218 0,-7.1582 5.17578,0 0,0.84473 -4.22852,0 0,2.19238 3.95996,0 0,0.83984 -3.95996,0 0,2.43653 4.39453,0 0,0.84472 -5.34179,0"
         id="path3557"
         inkscape:connector-curvature="0" />
      <path
         d="m 191.7793,442.36218 -1.97266,-5.18554 0.92773,0 1.11329,3.10546 c 0.12044,0.33529 0.23111,0.6836 0.33203,1.04493 0.0781,-0.27344 0.18717,-0.60222 0.32715,-0.98633 l 1.15234,-3.16406 0.90332,0 -1.96289,5.18554 -0.82031,0"
         id="path3559"
         inkscape:connector-curvature="0" />
      <path
         d="m 198.9082,440.69226 0.90821,0.11231 c -0.14324,0.5306 -0.40854,0.94238 -0.7959,1.23535 -0.38738,0.29297 -0.88217,0.43945 -1.48438,0.43945 -0.75846,0 -1.36068,-0.23275 -1.80664,-0.69824 -0.44271,-0.46875 -0.66406,-1.12467 -0.66406,-1.96778 0,-0.87239 0.22461,-1.54947 0.67383,-2.03125 0.44922,-0.48176 1.0319,-0.72265 1.74804,-0.72265 0.69336,0 1.25977,0.23601 1.69922,0.70801 0.43945,0.47201 0.65918,1.13607 0.65918,1.99218 0,0.0521 -0.002,0.13021 -0.005,0.23438 l -3.86719,0 c 0.0325,0.56966 0.19369,1.00586 0.4834,1.30859 0.28971,0.30274 0.65104,0.4541 1.08399,0.4541 0.32226,0 0.59732,-0.0846 0.82519,-0.2539 0.22786,-0.16927 0.40853,-0.43945 0.54199,-0.81055 m -2.88574,-1.4209 2.89551,0 c -0.0391,-0.43619 -0.14974,-0.76334 -0.33203,-0.98144 -0.27995,-0.33854 -0.64291,-0.50781 -1.08887,-0.50782 -0.40365,10e-6 -0.74382,0.1351 -1.02051,0.40528 -0.27344,0.27018 -0.4248,0.63151 -0.4541,1.08398"
         id="path3561"
         inkscape:connector-curvature="0" />
      <path
         d="m 200.9248,442.36218 0,-5.18554 0.79102,0 0,0.7373 c 0.38086,-0.56966 0.93099,-0.85449 1.65039,-0.85449 0.3125,0 0.59896,0.057 0.85938,0.1709 0.26366,0.11068 0.4606,0.25716 0.59082,0.43945 0.1302,0.1823 0.22135,0.39877 0.27343,0.64941 0.0325,0.16277 0.0488,0.4476 0.0488,0.8545 l 0,3.18847 -0.8789,0 0,-3.15429 c -1e-5,-0.35807 -0.0342,-0.625 -0.10254,-0.80079 -0.0684,-0.17903 -0.19044,-0.32063 -0.36621,-0.4248 -0.17253,-0.10742 -0.37598,-0.16113 -0.61036,-0.16113 -0.37435,0 -0.69824,0.11882 -0.97168,0.35644 -0.27018,0.23764 -0.40527,0.68848 -0.40527,1.35254 l 0,2.83203 -0.87891,0"
         id="path3563"
         inkscape:connector-curvature="0" />
      <path
         d="m 208.41016,441.57605 0.12695,0.77637 c -0.2474,0.0521 -0.46875,0.0781 -0.66406,0.0781 -0.31902,0 -0.56641,-0.0505 -0.74219,-0.15137 -0.17578,-0.10091 -0.29948,-0.23274 -0.37109,-0.3955 -0.0716,-0.16602 -0.10743,-0.5127 -0.10743,-1.04004 l 0,-2.9834 -0.64453,0 0,-0.68359 0.64453,0 0,-1.28418 0.87403,-0.52735 0,1.81153 0.88379,0 0,0.68359 -0.88379,0 0,3.03223 c 0,0.25065 0.0146,0.41178 0.0439,0.48339 0.0325,0.0716 0.083,0.12859 0.15137,0.1709 0.0716,0.0423 0.17252,0.0635 0.30273,0.0635 0.0977,0 0.22624,-0.0114 0.38575,-0.0342"
         id="path3565"
         inkscape:connector-curvature="0" />
      <path
         d="m 211.82812,440.06238 0.89356,-0.0781 c 0.0423,0.35808 0.13997,0.65267 0.29297,0.88379 0.15625,0.22787 0.39713,0.41341 0.72265,0.55664 0.32552,0.13998 0.69173,0.20996 1.09864,0.20996 0.36132,0 0.68033,-0.0537 0.95703,-0.16113 0.27669,-0.10742 0.48176,-0.2539 0.61523,-0.43945 0.13672,-0.1888 0.20508,-0.39388 0.20508,-0.61524 0,-0.2246 -0.0651,-0.41992 -0.19531,-0.58593 -0.13021,-0.16927 -0.34506,-0.31087 -0.64453,-0.42481 -0.19206,-0.0749 -0.61687,-0.19043 -1.27442,-0.34668 -0.65755,-0.1595 -1.11816,-0.30924 -1.38183,-0.44922 -0.3418,-0.17903 -0.59733,-0.40038 -0.7666,-0.66406 -0.16602,-0.26692 -0.24903,-0.56477 -0.24903,-0.89355 0,-0.36133 0.10254,-0.69824 0.30762,-1.01075 0.20508,-0.31575 0.50456,-0.555 0.89844,-0.71777 0.39388,-0.16275 0.8317,-0.24413 1.31347,-0.24414 0.5306,1e-5 0.99772,0.0863 1.40137,0.25879 0.4069,0.16928 0.7194,0.41993 0.9375,0.75195 0.21809,0.33204 0.33528,0.70801 0.35156,1.12793 l -0.9082,0.0684 c -0.0488,-0.45247 -0.21485,-0.79426 -0.49805,-1.02539 -0.27995,-0.23111 -0.69499,-0.34667 -1.24511,-0.34668 -0.57292,10e-6 -0.99122,0.1058 -1.25489,0.31738 -0.26041,0.20834 -0.39062,0.46062 -0.39062,0.75684 0,0.25717 0.0928,0.46875 0.27832,0.63476 0.18229,0.16602 0.65755,0.33692 1.42578,0.5127 0.77148,0.17253 1.30045,0.3239 1.58691,0.4541 0.41667,0.19206 0.72428,0.4362 0.92286,0.73242 0.19856,0.29297 0.29784,0.63152 0.29785,1.01563 -10e-6,0.38086 -0.10906,0.74056 -0.32715,1.0791 -0.21811,0.33529 -0.53223,0.59733 -0.94238,0.78613 -0.40691,0.18555 -0.86589,0.27832 -1.37696,0.27832 -0.64779,0 -1.19141,-0.0944 -1.63086,-0.2832 -0.4362,-0.1888 -0.77962,-0.472 -1.03027,-0.84961 -0.2474,-0.38086 -0.3776,-0.81054 -0.39063,-1.28906"
         id="path3567"
         inkscape:connector-curvature="0" />
      <path
         d="m 222.26758,440.69226 0.9082,0.11231 c -0.14323,0.5306 -0.40853,0.94238 -0.7959,1.23535 -0.38737,0.29297 -0.88216,0.43945 -1.48437,0.43945 -0.75847,0 -1.36068,-0.23275 -1.80664,-0.69824 -0.44271,-0.46875 -0.66407,-1.12467 -0.66407,-1.96778 0,-0.87239 0.22461,-1.54947 0.67383,-2.03125 0.44922,-0.48176 1.0319,-0.72265 1.74805,-0.72265 0.69336,0 1.25976,0.23601 1.69922,0.70801 0.43945,0.47201 0.65917,1.13607 0.65918,1.99218 -1e-5,0.0521 -0.002,0.13021 -0.005,0.23438 l -3.86719,0 c 0.0325,0.56966 0.19368,1.00586 0.4834,1.30859 0.28971,0.30274 0.65104,0.4541 1.08398,0.4541 0.32226,0 0.59733,-0.0846 0.8252,-0.2539 0.22786,-0.16927 0.40852,-0.43945 0.54199,-0.81055 m -2.88574,-1.4209 2.8955,0 c -0.0391,-0.43619 -0.14974,-0.76334 -0.33203,-0.98144 -0.27995,-0.33854 -0.6429,-0.50781 -1.08886,-0.50782 -0.40365,10e-6 -0.74382,0.1351 -1.02051,0.40528 -0.27344,0.27018 -0.42481,0.63151 -0.4541,1.08398"
         id="path3569"
         inkscape:connector-curvature="0" />
      <path
         d="m 224.27441,442.36218 0,-5.18554 0.79102,0 0,0.78613 c 0.20182,-0.36784 0.38737,-0.61035 0.55664,-0.72754 0.17252,-0.11718 0.36133,-0.17578 0.56641,-0.17578 0.29622,0 0.59732,0.0944 0.90332,0.2832 l -0.30274,0.81543 c -0.21484,-0.12695 -0.42969,-0.19042 -0.64453,-0.19043 -0.19206,1e-5 -0.36458,0.0586 -0.51758,0.17578 -0.15299,0.11394 -0.26204,0.27344 -0.32715,0.47852 -0.0977,0.3125 -0.14648,0.6543 -0.14648,1.02539 l 0,2.71484 -0.87891,0"
         id="path3571"
         inkscape:connector-curvature="0" />
      <path
         d="m 229.06445,442.36218 -1.97265,-5.18554 0.92773,0 1.11328,3.10546 c 0.12044,0.33529 0.23112,0.6836 0.33203,1.04493 0.0781,-0.27344 0.18718,-0.60222 0.32715,-0.98633 l 1.15235,-3.16406 0.90332,0 -1.96289,5.18554 -0.82032,0"
         id="path3573"
         inkscape:connector-curvature="0" />
      <path
         d="m 232.64844,436.21472 0,-1.01074 0.8789,0 0,1.01074 -0.8789,0 m 0,6.14746 0,-5.18554 0.8789,0 0,5.18554 -0.8789,0"
         id="path3575"
         inkscape:connector-curvature="0" />
      <path
         d="m 238.25391,440.46277 0.86425,0.1123 c -0.0944,0.59571 -0.33691,1.06283 -0.72754,1.40137 -0.38737,0.33529 -0.86426,0.50293 -1.43066,0.50293 -0.70964,0 -1.28093,-0.23112 -1.71387,-0.69336 -0.42968,-0.46549 -0.64453,-1.13118 -0.64453,-1.99707 0,-0.55989 0.0928,-1.0498 0.27832,-1.46973 0.18555,-0.41991 0.46712,-0.73404 0.84473,-0.94238 0.38086,-0.21158 0.79427,-0.31738 1.24023,-0.31738 0.56315,0 1.02376,0.14323 1.38184,0.42969 0.35807,0.2832 0.58756,0.68685 0.68848,1.21093 l -0.8545,0.13184 c -0.0814,-0.3483 -0.22624,-0.61035 -0.43457,-0.78613 -0.20508,-0.17578 -0.4541,-0.26367 -0.74707,-0.26368 -0.44271,10e-6 -0.80241,0.15951 -1.0791,0.47852 -0.27669,0.31576 -0.41504,0.81706 -0.41504,1.50391 0,0.69661 0.13346,1.2028 0.40039,1.51855 0.26693,0.31576 0.61524,0.47363 1.04493,0.47363 0.34504,0 0.63313,-0.10579 0.86425,-0.31738 0.23112,-0.21159 0.3776,-0.53711 0.43946,-0.97656"
         id="path3577"
         inkscape:connector-curvature="0" />
      <path
         d="m 243.41992,440.69226 0.9082,0.11231 c -0.14323,0.5306 -0.40853,0.94238 -0.79589,1.23535 -0.38738,0.29297 -0.88217,0.43945 -1.48438,0.43945 -0.75846,0 -1.36068,-0.23275 -1.80664,-0.69824 -0.44271,-0.46875 -0.66406,-1.12467 -0.66406,-1.96778 0,-0.87239 0.22461,-1.54947 0.67383,-2.03125 0.44921,-0.48176 1.0319,-0.72265 1.74804,-0.72265 0.69336,0 1.25977,0.23601 1.69922,0.70801 0.43945,0.47201 0.65918,1.13607 0.65918,1.99218 0,0.0521 -0.002,0.13021 -0.005,0.23438 l -3.86719,0 c 0.0325,0.56966 0.19368,1.00586 0.4834,1.30859 0.28971,0.30274 0.65104,0.4541 1.08398,0.4541 0.32227,0 0.59733,-0.0846 0.8252,-0.2539 0.22786,-0.16927 0.40852,-0.43945 0.54199,-0.81055 m -2.88574,-1.4209 2.89551,0 c -0.0391,-0.43619 -0.14975,-0.76334 -0.33203,-0.98144 -0.27996,-0.33854 -0.64291,-0.50781 -1.08887,-0.50782 -0.40365,10e-6 -0.74382,0.1351 -1.02051,0.40528 -0.27344,0.27018 -0.4248,0.63151 -0.4541,1.08398"
         id="path3579"
         inkscape:connector-curvature="0" />
    </g>
    <g
       style="font-size:8px;font-style:normal;font-variant:normal;font-weight:normal;font-stretch:normal;text-align:start;line-height:125%;letter-spacing:0px;word-spacing:0px;writing-mode:lr-tb;text-anchor:start;fill:#000000;fill-opacity:1;stroke:none;font-family:Arial;-inkscape-font-specification:Arial"
       id="text5932"
       transform="translate(-95.53613,50.88281)">
      <path
         d="m 204.70312,465.35437 0.75782,0.19141 c -0.15886,0.62239 -0.44532,1.09765 -0.85938,1.42578 -0.41146,0.32552 -0.91537,0.48828 -1.51172,0.48828 -0.61719,0 -1.11979,-0.125 -1.50781,-0.375 -0.38542,-0.2526 -0.67969,-0.61719 -0.88281,-1.09375 -0.20052,-0.47656 -0.30078,-0.98828 -0.30078,-1.53516 0,-0.59635 0.11328,-1.11588 0.33984,-1.55859 0.22917,-0.44531 0.55339,-0.78255 0.97266,-1.01172 0.42187,-0.23177 0.88541,-0.34765 1.39062,-0.34766 0.57292,10e-6 1.05469,0.14584 1.44531,0.4375 0.39063,0.29168 0.66276,0.70183 0.81641,1.23047 l -0.74609,0.17578 c -0.13282,-0.41666 -0.32553,-0.72004 -0.57813,-0.91015 -0.25261,-0.1901 -0.57031,-0.28515 -0.95312,-0.28516 -0.44011,1e-5 -0.8086,0.10548 -1.10547,0.31641 -0.29427,0.21094 -0.5013,0.49479 -0.6211,0.85156 -0.11979,0.35417 -0.17968,0.72006 -0.17968,1.09766 0,0.48698 0.0703,0.91276 0.21093,1.27734 0.14323,0.36198 0.36459,0.63281 0.66407,0.8125 0.29947,0.17969 0.62369,0.26953 0.97265,0.26953 0.42448,0 0.78385,-0.12239 1.07813,-0.36719 0.29427,-0.24479 0.49348,-0.60807 0.59765,-1.08984"
         id="path3582"
         inkscape:connector-curvature="0" />
      <path
         d="m 206.29297,467.36218 0,-5.72656 0.70312,0 0,5.72656 -0.70312,0"
         id="path3584"
         inkscape:connector-curvature="0" />
      <path
         d="m 210.80859,467.36218 0,-0.60937 c -0.32292,0.46875 -0.76172,0.70312 -1.3164,0.70312 -0.2448,0 -0.47396,-0.0469 -0.6875,-0.14062 -0.21094,-0.0937 -0.36849,-0.21094 -0.47266,-0.35156 -0.10156,-0.14323 -0.17318,-0.31771 -0.21484,-0.52344 -0.0286,-0.13802 -0.043,-0.35677 -0.043,-0.65625 l 0,-2.57031 0.70312,0 0,2.30078 c 0,0.36719 0.0143,0.61458 0.043,0.74218 0.0443,0.1849 0.13802,0.33073 0.28125,0.4375 0.14323,0.10417 0.32031,0.15625 0.53125,0.15625 0.21094,0 0.40885,-0.0534 0.59375,-0.16015 0.1849,-0.10938 0.3151,-0.25651 0.39063,-0.44141 0.0781,-0.1875 0.11718,-0.45833 0.11718,-0.8125 l 0,-2.22265 0.70313,0 0,4.14843 -0.62891,0"
         id="path3586"
         inkscape:connector-curvature="0" />
      <path
         d="m 212.26172,466.1239 0.69531,-0.10937 c 0.0391,0.27864 0.14714,0.49218 0.32422,0.64062 0.17969,0.14844 0.42969,0.22266 0.75,0.22266 0.32291,0 0.5625,-0.0651 0.71875,-0.19531 0.15625,-0.13282 0.23437,-0.28776 0.23437,-0.46485 0,-0.15885 -0.069,-0.28385 -0.20703,-0.375 -0.0964,-0.0625 -0.33594,-0.14192 -0.71875,-0.23828 -0.51562,-0.13021 -0.8737,-0.24219 -1.07422,-0.33594 -0.19791,-0.0964 -0.34895,-0.22786 -0.45312,-0.39453 -0.10156,-0.16927 -0.15234,-0.35546 -0.15234,-0.55859 0,-0.18489 0.0417,-0.35547 0.125,-0.51172 0.0859,-0.15885 0.20182,-0.29036 0.34765,-0.39453 0.10938,-0.0807 0.25781,-0.14844 0.44531,-0.20313 0.19011,-0.0573 0.39323,-0.0859 0.60938,-0.0859 0.32552,0 0.61067,0.0469 0.85547,0.14062 0.24739,0.0937 0.42968,0.22136 0.54687,0.38281 0.11719,0.15886 0.19792,0.3724 0.24219,0.64063 l -0.6875,0.0937 c -0.0312,-0.21354 -0.1224,-0.38021 -0.27344,-0.5 -0.14844,-0.11979 -0.35937,-0.17969 -0.63281,-0.17969 -0.32292,0 -0.55339,0.0534 -0.69141,0.16016 -0.13802,0.10677 -0.20703,0.23177 -0.20703,0.375 0,0.0912 0.0286,0.17318 0.0859,0.24609 0.0573,0.0755 0.14714,0.13802 0.26953,0.1875 0.0703,0.026 0.27734,0.0859 0.6211,0.17969 0.49739,0.13281 0.84374,0.24219 1.03906,0.32812 0.19791,0.0833 0.35286,0.20573 0.46484,0.36719 0.11198,0.16146 0.16797,0.36198 0.16797,0.60156 0,0.23438 -0.069,0.45573 -0.20703,0.66407 -0.13542,0.20572 -0.33203,0.36588 -0.58984,0.48046 -0.25782,0.11198 -0.54949,0.16797 -0.875,0.16797 -0.53907,0 -0.95053,-0.11198 -1.23438,-0.33593 -0.28125,-0.22396 -0.46094,-0.55599 -0.53906,-0.9961"
         id="path3588"
         inkscape:connector-curvature="0" />
      <path
         d="m 218.07812,466.73328 0.10157,0.62109 c -0.19792,0.0417 -0.375,0.0625 -0.53125,0.0625 -0.25521,0 -0.45313,-0.0404 -0.59375,-0.12109 -0.14063,-0.0807 -0.23959,-0.1862 -0.29688,-0.31641 -0.0573,-0.13281 -0.0859,-0.41016 -0.0859,-0.83203 l 0,-2.38672 -0.51562,0 0,-0.54687 0.51562,0 0,-1.02735 0.69922,-0.42187 0,1.44922 0.70703,0 0,0.54687 -0.70703,0 0,2.42578 c 0,0.20052 0.0117,0.32943 0.0352,0.38672 0.026,0.0573 0.0664,0.10287 0.12109,0.13672 0.0573,0.0339 0.13802,0.0508 0.24219,0.0508 0.0781,0 0.18099,-0.009 0.30859,-0.0273"
         id="path3590"
         inkscape:connector-curvature="0" />
      <path
         d="m 221.60156,466.02625 0.72656,0.0898 c -0.11458,0.42448 -0.32682,0.75391 -0.63671,0.98828 -0.3099,0.23438 -0.70574,0.35156 -1.1875,0.35156 -0.60678,0 -1.08855,-0.1862 -1.44532,-0.55859 -0.35416,-0.375 -0.53125,-0.89974 -0.53125,-1.57422 0,-0.69791 0.17969,-1.23958 0.53907,-1.625 0.35937,-0.38541 0.82552,-0.57812 1.39843,-0.57812 0.55469,0 1.00781,0.1888 1.35938,0.5664 0.35156,0.37761 0.52734,0.90886 0.52734,1.59375 0,0.0417 -0.001,0.10417 -0.004,0.1875 l -3.09375,0 c 0.026,0.45573 0.15494,0.80469 0.38671,1.04688 0.23177,0.24218 0.52084,0.36328 0.86719,0.36328 0.25781,0 0.47786,-0.0677 0.66016,-0.20313 0.18229,-0.13541 0.32682,-0.35156 0.43359,-0.64843 m -2.30859,-1.13672 2.3164,0 c -0.0312,-0.34896 -0.11979,-0.61068 -0.26562,-0.78516 -0.22396,-0.27083 -0.51433,-0.40625 -0.87109,-0.40625 -0.32292,0 -0.59506,0.10808 -0.81641,0.32422 -0.21875,0.21615 -0.33984,0.50521 -0.36328,0.86719"
         id="path3592"
         inkscape:connector-curvature="0" />
      <path
         d="m 223.20703,467.36218 0,-4.14843 0.63281,0 0,0.6289 c 0.16146,-0.29427 0.3099,-0.48828 0.44532,-0.58203 0.13802,-0.0937 0.28906,-0.14062 0.45312,-0.14062 0.23698,0 0.47786,0.0755 0.72266,0.22656 l -0.24219,0.65234 c -0.17188,-0.10156 -0.34375,-0.15234 -0.51563,-0.15234 -0.15364,0 -0.29166,0.0469 -0.41406,0.14062 -0.12239,0.0911 -0.20963,0.21876 -0.26172,0.38282 -0.0781,0.25 -0.11718,0.52344 -0.11718,0.82031 l 0,2.17187 -0.70313,0"
         id="path3594"
         inkscape:connector-curvature="0" />
    </g>
    <g
       style="font-size:10px;font-style:normal;font-variant:normal;font-weight:normal;font-stretch:normal;text-align:start;line-height:125%;letter-spacing:0px;word-spacing:0px;writing-mode:lr-tb;text-anchor:start;fill:#000000;fill-opacity:1;stroke:none;font-family:Arial;-inkscape-font-specification:Arial"
       id="text3092"
       transform="translate(-5.27047,-2.7743977)">
      <path
         d="m 194.78613,497.36218 0,-7.1582 3.17383,0 c 0.63802,10e-6 1.12304,0.0651 1.45508,0.19531 0.33202,0.12696 0.59732,0.3532 0.7959,0.67871 0.19856,0.32553 0.29784,0.68523 0.29785,1.0791 -1e-5,0.50782 -0.1644,0.93588 -0.49317,1.28418 -0.32878,0.34832 -0.83659,0.56967 -1.52343,0.66407 0.25064,0.12044 0.44107,0.23926 0.57129,0.35644 0.27668,0.25391 0.53873,0.57129 0.78613,0.95215 l 1.24512,1.94824 -1.19141,0 -0.94727,-1.48926 c -0.27669,-0.42968 -0.50456,-0.75846 -0.68359,-0.98632 -0.17904,-0.22787 -0.34017,-0.38737 -0.4834,-0.47852 -0.13998,-0.0911 -0.2832,-0.15462 -0.42969,-0.19043 -0.10742,-0.0228 -0.2832,-0.0342 -0.52734,-0.0342 l -1.09863,0 0,3.17871 -0.94727,0 m 0.94727,-3.99902 2.03613,0 c 0.43294,0 0.77148,-0.0439 1.01563,-0.13184 0.24413,-0.0911 0.42968,-0.23437 0.55664,-0.42968 0.12694,-0.19857 0.19042,-0.41341 0.19043,-0.64454 -1e-5,-0.33853 -0.12371,-0.61685 -0.3711,-0.83496 -0.24414,-0.21809 -0.63151,-0.32714 -1.16211,-0.32714 l -2.26562,0 0,2.36816"
         id="path3597"
         inkscape:connector-curvature="0" />
      <path
         d="m 205.43555,495.69226 0.9082,0.11231 c -0.14323,0.5306 -0.40853,0.94238 -0.7959,1.23535 -0.38737,0.29297 -0.88216,0.43945 -1.48437,0.43945 -0.75847,0 -1.36068,-0.23275 -1.80664,-0.69824 -0.44271,-0.46875 -0.66407,-1.12467 -0.66407,-1.96778 0,-0.87239 0.22461,-1.54947 0.67383,-2.03125 0.44922,-0.48176 1.0319,-0.72265 1.74805,-0.72265 0.69335,0 1.25976,0.23601 1.69922,0.70801 0.43945,0.47201 0.65917,1.13607 0.65918,1.99218 -1e-5,0.0521 -0.002,0.13021 -0.005,0.23438 l -3.86718,0 c 0.0326,0.56966 0.19368,1.00586 0.48339,1.30859 0.28972,0.30274 0.65104,0.4541 1.08399,0.4541 0.32226,0 0.59733,-0.0846 0.82519,-0.2539 0.22787,-0.16927 0.40853,-0.43945 0.542,-0.81055 m -2.88575,-1.4209 2.89551,0 c -0.0391,-0.43619 -0.14974,-0.76334 -0.33203,-0.98144 -0.27995,-0.33854 -0.64291,-0.50781 -1.08887,-0.50782 -0.40364,10e-6 -0.74381,0.1351 -1.0205,0.40528 -0.27344,0.27018 -0.42481,0.63151 -0.45411,1.08398"
         id="path3599"
         inkscape:connector-curvature="0" />
      <path
         d="m 207.29102,497.79187 0.85449,0.12695 c 0.0358,0.26367 0.13509,0.45573 0.29785,0.57618 0.2181,0.16275 0.51595,0.24413 0.89355,0.24414 0.4069,-1e-5 0.72103,-0.0814 0.94239,-0.24414 0.22135,-0.16277 0.37109,-0.39063 0.44922,-0.6836 0.0456,-0.17904 0.0667,-0.55501 0.0635,-1.12793 -0.38412,0.45248 -0.86263,0.67871 -1.43554,0.67871 -0.7129,0 -1.26465,-0.25716 -1.65528,-0.77148 -0.39062,-0.51432 -0.58594,-1.13118 -0.58594,-1.85059 0,-0.49479 0.0895,-0.95051 0.26856,-1.36719 0.17903,-0.41991 0.43782,-0.74381 0.77637,-0.97167 0.34179,-0.22786 0.74218,-0.3418 1.20117,-0.3418 0.61197,0 1.11653,0.2474 1.51367,0.74219 l 0,-0.625 0.81055,0 0,4.48242 c -10e-6,0.80729 -0.083,1.37858 -0.24903,1.71386 -0.16276,0.33855 -0.42318,0.60547 -0.78125,0.80079 -0.35482,0.19531 -0.79264,0.29296 -1.31347,0.29296 -0.61849,0 -1.11817,-0.13997 -1.49903,-0.41992 -0.38086,-0.27669 -0.56478,-0.69499 -0.55175,-1.25488 m 0.72753,-3.11523 c 0,0.68034 0.13509,1.17676 0.40528,1.48925 0.27018,0.3125 0.60872,0.46875 1.01562,0.46875 0.40365,0 0.74219,-0.15462 1.01563,-0.46386 0.27343,-0.3125 0.41015,-0.80078 0.41015,-1.46485 0,-0.63476 -0.1416,-1.11327 -0.4248,-1.43554 -0.27995,-0.32227 -0.61849,-0.4834 -1.01563,-0.4834 -0.39062,0 -0.72265,0.15951 -0.99609,0.47851 -0.27344,0.31576 -0.41016,0.78614 -0.41016,1.41114"
         id="path3601"
         inkscape:connector-curvature="0" />
      <path
         d="m 213.02344,491.21472 0,-1.01074 0.8789,0 0,1.01074 -0.8789,0 m 0,6.14746 0,-5.18554 0.8789,0 0,5.18554 -0.8789,0"
         id="path3603"
         inkscape:connector-curvature="0" />
      <path
         d="m 214.89355,495.81433 0.86915,-0.13672 c 0.0488,0.34831 0.18391,0.61524 0.40527,0.80078 0.22461,0.18555 0.53711,0.27832 0.9375,0.27832 0.40364,0 0.70312,-0.0814 0.89844,-0.24414 0.19531,-0.16601 0.29296,-0.3597 0.29296,-0.58105 0,-0.19857 -0.0863,-0.35482 -0.25878,-0.46875 -0.12045,-0.0781 -0.41993,-0.17741 -0.89844,-0.29785 -0.64453,-0.16276 -1.09213,-0.30273 -1.34278,-0.41992 -0.24739,-0.12044 -0.43619,-0.28483 -0.5664,-0.49317 -0.12695,-0.21158 -0.19043,-0.44433 -0.19043,-0.69824 0,-0.23112 0.0521,-0.44433 0.15625,-0.63965 0.10742,-0.19856 0.25228,-0.36295 0.43457,-0.49316 0.13672,-0.10091 0.32226,-0.18555 0.55664,-0.25391 0.23763,-0.0716 0.49153,-0.10742 0.76172,-0.10742 0.4069,0 0.76334,0.0586 1.06933,0.17578 0.30925,0.11719 0.53711,0.2767 0.6836,0.47852 0.14648,0.19857 0.24739,0.46549 0.30273,0.80078 l -0.85937,0.11718 c -0.0391,-0.26692 -0.153,-0.47525 -0.3418,-0.625 -0.18555,-0.14973 -0.44922,-0.2246 -0.79101,-0.22461 -0.40365,10e-6 -0.69174,0.0667 -0.86426,0.2002 -0.17253,0.13347 -0.25879,0.28972 -0.25879,0.46875 0,0.11394 0.0358,0.21647 0.10742,0.30762 0.0716,0.0944 0.18392,0.17253 0.33691,0.23437 0.0879,0.0326 0.34668,0.10743 0.77637,0.22461 0.62174,0.16602 1.05469,0.30274 1.29883,0.41016 0.24739,0.10417 0.44108,0.25716 0.58105,0.45898 0.13997,0.20183 0.20996,0.45248 0.20997,0.75196 -1e-5,0.29297 -0.0863,0.56966 -0.25879,0.83007 -0.16928,0.25717 -0.41505,0.45736 -0.73731,0.60059 -0.32227,0.13997 -0.68685,0.20996 -1.09375,0.20996 -0.67383,0 -1.18815,-0.13997 -1.54297,-0.41992 -0.35156,-0.27995 -0.57617,-0.69499 -0.67383,-1.24512"
         id="path3605"
         inkscape:connector-curvature="0" />
      <path
         d="m 222.16406,496.57605 0.12696,0.77637 c -0.2474,0.0521 -0.46876,0.0781 -0.66407,0.0781 -0.31901,0 -0.5664,-0.0505 -0.74218,-0.15137 -0.17579,-0.10091 -0.29948,-0.23274 -0.3711,-0.3955 -0.0716,-0.16602 -0.10742,-0.5127 -0.10742,-1.04004 l 0,-2.9834 -0.64453,0 0,-0.68359 0.64453,0 0,-1.28418 0.87402,-0.52735 0,1.81153 0.88379,0 0,0.68359 -0.88379,0 0,3.03223 c 0,0.25065 0.0146,0.41178 0.0439,0.48339 0.0326,0.0716 0.083,0.12859 0.15137,0.1709 0.0716,0.0423 0.17252,0.0635 0.30273,0.0635 0.0976,0 0.22623,-0.0114 0.38574,-0.0342"
         id="path3607"
         inkscape:connector-curvature="0" />
      <path
         d="m 223.00879,497.36218 0,-5.18554 0.79101,0 0,0.78613 c 0.20183,-0.36784 0.38737,-0.61035 0.55665,-0.72754 0.17252,-0.11718 0.36132,-0.17578 0.5664,-0.17578 0.29622,0 0.59733,0.0944 0.90332,0.2832 l -0.30273,0.81543 c -0.21485,-0.12695 -0.42969,-0.19042 -0.64453,-0.19043 -0.19206,1e-5 -0.36459,0.0586 -0.51758,0.17578 -0.153,0.11394 -0.26205,0.27344 -0.32715,0.47852 -0.0977,0.3125 -0.14649,0.6543 -0.14648,1.02539 l 0,2.71484 -0.87891,0"
         id="path3609"
         inkscape:connector-curvature="0" />
      <path
         d="m 226.31934,499.35925 -0.0977,-0.82519 c 0.19206,0.0521 0.3597,0.0781 0.50293,0.0781 0.19531,0 0.35156,-0.0326 0.46875,-0.0977 0.11719,-0.0651 0.21321,-0.15625 0.28809,-0.27344 0.0553,-0.0879 0.14485,-0.30599 0.26855,-0.6543 0.0163,-0.0488 0.0423,-0.12044 0.0781,-0.21484 l -1.96777,-5.19531 0.94727,0 1.0791,3.00293 c 0.13997,0.38086 0.2653,0.78125 0.37598,1.20117 0.1009,-0.40365 0.22135,-0.79753 0.36132,-1.18164 l 1.1084,-3.02246 0.87891,0 -1.97266,5.27343 c -0.21159,0.56966 -0.37598,0.96192 -0.49316,1.17676 -0.15625,0.28971 -0.33529,0.5013 -0.53711,0.63477 -0.20183,0.13671 -0.44271,0.20507 -0.72266,0.20507 -0.16927,0 -0.35807,-0.0358 -0.5664,-0.10742"
         id="path3611"
         inkscape:connector-curvature="0" />
    </g>
    <g
       style="font-size:8px;font-style:normal;font-variant:normal;font-weight:normal;font-stretch:normal;text-align:start;line-height:125%;letter-spacing:0px;word-spacing:0px;writing-mode:lr-tb;text-anchor:start;fill:#000000;fill-opacity:1;stroke:none;font-family:Arial;-inkscape-font-specification:Arial"
       id="text3096"
       transform="translate(0.72953,-4.7743977)">
      <path
         d="m 205.58594,522.36218 0,-5.72656 0.75781,0 0,2.83984 2.84375,-2.83984 1.02734,0 -2.40234,2.32031 2.50781,3.40625 -1,0 -2.03906,-2.89843 -0.9375,0.91406 0,1.98437 -0.75781,0"
         id="path3614"
         inkscape:connector-curvature="0" />
      <path
         d="m 213.71094,521.02625 0.72656,0.0898 c -0.11459,0.42448 -0.32683,0.75391 -0.63672,0.98828 -0.3099,0.23438 -0.70573,0.35156 -1.1875,0.35156 -0.60677,0 -1.08854,-0.1862 -1.44531,-0.55859 -0.35417,-0.375 -0.53125,-0.89974 -0.53125,-1.57422 0,-0.69791 0.17969,-1.23958 0.53906,-1.625 0.35938,-0.38541 0.82552,-0.57812 1.39844,-0.57812 0.55468,0 1.00781,0.1888 1.35937,0.5664 0.35156,0.37761 0.52734,0.90886 0.52735,1.59375 -1e-5,0.0417 -0.001,0.10417 -0.004,0.1875 l -3.09375,0 c 0.026,0.45573 0.15495,0.80469 0.38672,1.04688 0.23177,0.24218 0.52083,0.36328 0.86719,0.36328 0.25781,0 0.47786,-0.0677 0.66015,-0.20313 0.18229,-0.13541 0.32682,-0.35156 0.4336,-0.64843 m -2.3086,-1.13672 2.31641,0 c -0.0312,-0.34896 -0.11979,-0.61068 -0.26563,-0.78516 -0.22396,-0.27083 -0.51432,-0.40625 -0.87109,-0.40625 -0.32292,0 -0.59505,0.10808 -0.81641,0.32422 -0.21875,0.21615 -0.33984,0.50521 -0.36328,0.86719"
         id="path3616"
         inkscape:connector-curvature="0" />
      <path
         d="m 215.29297,523.95984 -0.0781,-0.66016 c 0.15365,0.0417 0.28776,0.0625 0.40235,0.0625 0.15625,0 0.28125,-0.026 0.375,-0.0781 0.0937,-0.0521 0.17057,-0.125 0.23047,-0.21875 0.0443,-0.0703 0.11588,-0.24479 0.21484,-0.52344 0.013,-0.0391 0.0339,-0.0964 0.0625,-0.17187 l -1.57422,-4.15625 0.75781,0 0.86328,2.40234 c 0.11198,0.30469 0.21224,0.625 0.30079,0.96094 0.0807,-0.32292 0.17708,-0.63802 0.28906,-0.94532 l 0.88672,-2.41796 0.70312,0 -1.57812,4.21875 c -0.16928,0.45572 -0.30079,0.76953 -0.39453,0.9414 -0.12501,0.23177 -0.26823,0.40104 -0.42969,0.50781 -0.16146,0.10938 -0.35417,0.16406 -0.57813,0.16407 -0.13541,-10e-6 -0.28646,-0.0287 -0.45312,-0.0859"
         id="path3618"
         inkscape:connector-curvature="0" />
    </g>
    <path
       style="fill:none;stroke:#000000;stroke-width:2;stroke-linecap:butt;stroke-linejoin:miter;stroke-miterlimit:4;stroke-opacity:1;stroke-dasharray:none;stroke-dashoffset:0;marker-end:url(#TriangleOutM)"
       d="m -85,392.3622 40,0"
       id="path4616"
       inkscape:connector-curvature="0" />
    <path
       inkscape:connector-curvature="0"
       id="path3093"
       d="m 187,392.3622 33,0"
       style="fill:none;stroke:#000000;stroke-width:2;stroke-linecap:butt;stroke-linejoin:miter;stroke-miterlimit:4;stroke-opacity:1;stroke-dasharray:none;stroke-dashoffset:0;marker-end:url(#TriangleOutM)" />
    <path
       style="fill:none;stroke:#000000;stroke-width:2;stroke-linecap:butt;stroke-linejoin:miter;stroke-miterlimit:4;stroke-opacity:1;stroke-dasharray:2, 2;stroke-dashoffset:0;marker-end:url(#TriangleOutM)"
       d="m -40,407.3622 -40,0"
       id="path3097"
       inkscape:connector-curvature="0" />
    <path
       inkscape:connector-curvature="0"
       id="path3915"
       d="m 222,407.3622 -30,0"
       style="fill:none;stroke:#000000;stroke-width:2;stroke-linecap:butt;stroke-linejoin:miter;stroke-miterlimit:4;stroke-opacity:1;stroke-dasharray:2, 2;stroke-dashoffset:0;marker-end:url(#TriangleOutM)" />
    <g
       style="font-size:10px;font-style:normal;font-variant:normal;font-weight:normal;font-stretch:normal;text-align:center;line-height:125%;letter-spacing:0px;word-spacing:0px;writing-mode:lr-tb;text-anchor:middle;fill:#000000;fill-opacity:1;stroke:none;font-family:Arial;-inkscape-font-specification:Arial"
       id="text3182"
       transform="translate(266.25977,-1.8603484)">
      <path
         d="m -27.84668,397.36218 0,-7.1582 3.173828,0 c 0.638017,10e-6 1.123042,0.0651 1.455079,0.19531 0.332025,0.12696 0.597324,0.3532 0.795898,0.67871 0.198561,0.32553 0.297845,0.68523 0.297852,1.0791 -7e-6,0.50782 -0.164395,0.93588 -0.493164,1.28418 -0.328782,0.34832 -0.836594,0.56967 -1.523438,0.66407 0.250646,0.12044 0.441076,0.23926 0.571289,0.35644 0.276687,0.25391 0.538731,0.57129 0.786133,0.95215 l 1.245117,1.94824 -1.191406,0 -0.947266,-1.48926 c -0.276697,-0.42968 -0.504562,-0.75846 -0.683594,-0.98632 -0.17904,-0.22787 -0.340173,-0.38737 -0.483398,-0.47852 -0.139978,-0.0911 -0.283207,-0.15462 -0.429687,-0.19043 -0.107426,-0.0228 -0.283207,-0.0342 -0.527344,-0.0342 l -1.098633,0 0,3.17871 -0.947266,0 m 0.947266,-3.99902 2.036133,0 c 0.432938,0 0.77148,-0.0439 1.015625,-0.13184 0.244135,-0.0911 0.429682,-0.23437 0.55664,-0.42968 0.126948,-0.19857 0.190425,-0.41341 0.19043,-0.64454 -5e-6,-0.33853 -0.123703,-0.61685 -0.371094,-0.83496 -0.244145,-0.21809 -0.631515,-0.32714 -1.162109,-0.32714 l -2.265625,0 0,2.36816"
         id="path3621"
         inkscape:connector-curvature="0" />
      <path
         d="m -17.197266,395.69226 0.908204,0.11231 c -0.143235,0.5306 -0.408534,0.94238 -0.795899,1.23535 -0.387374,0.29297 -0.882165,0.43945 -1.484375,0.43945 -0.758466,0 -1.360678,-0.23275 -1.806641,-0.69824 -0.442708,-0.46875 -0.664062,-1.12467 -0.664062,-1.96778 0,-0.87239 0.224609,-1.54947 0.673828,-2.03125 0.449217,-0.48176 1.031899,-0.72265 1.748047,-0.72265 0.693356,0 1.259762,0.23601 1.699219,0.70801 0.439448,0.47201 0.659174,1.13607 0.659179,1.99218 -5e-6,0.0521 -0.0016,0.13021 -0.0049,0.23438 l -3.867188,0 c 0.03255,0.56966 0.193683,1.00586 0.483399,1.30859 0.289711,0.30274 0.651039,0.4541 1.083984,0.4541 0.322262,0 0.597327,-0.0846 0.825195,-0.2539 0.227861,-0.16927 0.408525,-0.43945 0.541992,-0.81055 m -2.885742,-1.4209 2.895508,0 c -0.03907,-0.43619 -0.149744,-0.76334 -0.332031,-0.98144 -0.279952,-0.33854 -0.642907,-0.50781 -1.088867,-0.50782 -0.403649,10e-6 -0.743818,0.1351 -1.020508,0.40528 -0.273439,0.27018 -0.424806,0.63151 -0.454102,1.08398"
         id="path3623"
         inkscape:connector-curvature="0" />
      <path
         d="m -11.875,399.34949 0,-2.53907 c -0.136723,0.19206 -0.32878,0.35157 -0.576172,0.47852 -0.244144,0.12695 -0.50456,0.19043 -0.78125,0.19043 -0.615236,0 -1.145835,-0.24577 -1.591797,-0.7373 -0.442709,-0.49154 -0.664063,-1.16537 -0.664062,-2.02149 -10e-7,-0.52083 0.08952,-0.98795 0.268554,-1.40137 0.182291,-0.4134 0.444335,-0.7259 0.786133,-0.9375 0.345051,-0.21483 0.722654,-0.32226 1.132813,-0.32226 0.641273,0 1.145829,0.27019 1.513672,0.81055 l 0,-0.69336 0.791015,0 0,7.17285 -0.878906,0 m -2.709961,-4.59473 c -1e-6,0.66732 0.139973,1.16862 0.419922,1.50391 0.279946,0.33203 0.615232,0.49804 1.005859,0.49804 0.374346,0 0.696612,-0.15787 0.966797,-0.47363 0.270179,-0.31901 0.40527,-0.80241 0.405274,-1.45019 -4e-6,-0.69011 -0.143233,-1.20931 -0.429688,-1.55762 -0.283206,-0.3483 -0.616865,-0.52246 -1.000976,-0.52246 -0.380862,0 -0.704755,0.16276 -0.97168,0.48828 -0.263673,0.32227 -0.395509,0.82683 -0.395508,1.51367"
         id="path3625"
         inkscape:connector-curvature="0" />
      <path
         d="m -6.2158203,397.36218 0,-0.76172 c -0.4036495,0.58594 -0.9521516,0.87891 -1.6455078,0.87891 -0.3059917,0 -0.5924498,-0.0586 -0.859375,-0.17578 -0.2636732,-0.11719 -0.4606131,-0.26367 -0.5908203,-0.43945 -0.126954,-0.17904 -0.2164721,-0.39714 -0.2685547,-0.6543 -0.035808,-0.17253 -0.053712,-0.44596 -0.053711,-0.82031 l 0,-3.21289 0.8789063,0 0,2.87597 c -1.5e-6,0.45899 0.017902,0.76823 0.053711,0.92774 0.055337,0.23112 0.1725243,0.41341 0.3515625,0.54687 0.1790344,0.13021 0.4003883,0.19531 0.6640625,0.19531 0.263669,0 0.5110646,-0.0667 0.7421875,-0.20019 0.2311163,-0.13672 0.3938765,-0.32064 0.4882813,-0.55176 0.097652,-0.23437 0.1464804,-0.57291 0.1464844,-1.01562 l 0,-2.77832 0.8789062,0 0,5.18554 -0.7861328,0"
         id="path3627"
         inkscape:connector-curvature="0" />
      <path
         d="m -0.49804688,395.69226 0.90820313,0.11231 c -0.14323414,0.5306 -0.40853335,0.94238 -0.79589844,1.23535 -0.38737372,0.29297 -0.88216491,0.43945 -1.48437501,0.43945 -0.7584656,0 -1.3606785,-0.23275 -1.8066406,-0.69824 -0.4427089,-0.46875 -0.6640629,-1.12467 -0.6640625,-1.96778 -4e-7,-0.87239 0.2246088,-1.54947 0.6738281,-2.03125 0.4492173,-0.48176 1.031899,-0.72265 1.7480469,-0.72265 0.6933559,0 1.25976156,0.23601 1.69921874,0.70801 0.4394482,0.47201 0.65917454,1.13607 0.65917969,1.99218 -5.15e-6,0.0521 -0.001633,0.13021 -0.004883,0.23438 l -3.86718753,0 c 0.032551,0.56966 0.1936834,1.00586 0.4833984,1.30859 0.2897115,0.30274 0.6510393,0.4541 1.0839844,0.4541 0.3222625,0 0.5973273,-0.0846 0.8251953,-0.2539 0.22786075,-0.16927 0.40852463,-0.43945 0.54199224,-0.81055 m -2.88574224,-1.4209 2.89550787,0 c -0.0390667,-0.43619 -0.14974365,-0.76334 -0.33203125,-0.98144 -0.27995152,-0.33854 -0.64290692,-0.50781 -1.08886722,-0.50782 -0.4036482,10e-6 -0.7438171,0.1351 -1.0205078,0.40528 -0.273439,0.27018 -0.424806,0.63151 -0.4541016,1.08398"
         id="path3629"
         inkscape:connector-curvature="0" />
      <path
         d="m 1.1669922,395.81433 0.8691406,-0.13672 c 0.048827,0.34831 0.1839179,0.61524 0.4052735,0.80078 0.2246075,0.18555 0.5371072,0.27832 0.9375,0.27832 0.4036429,0 0.7031217,-0.0814 0.8984374,-0.24414 0.1953089,-0.16601 0.2929651,-0.3597 0.2929688,-0.58105 -3.7e-6,-0.19857 -0.086267,-0.35482 -0.2587891,-0.46875 -0.120446,-0.0781 -0.4199249,-0.17741 -0.8984375,-0.29785 -0.6445331,-0.16276 -1.0921238,-0.30273 -1.3427734,-0.41992 -0.2473968,-0.12044 -0.4361987,-0.28483 -0.5664063,-0.49317 -0.1269536,-0.21158 -0.1904301,-0.44433 -0.1904296,-0.69824 -5e-7,-0.23112 0.052083,-0.44433 0.15625,-0.63965 0.1074211,-0.19856 0.2522777,-0.36295 0.4345703,-0.49316 0.1367175,-0.10091 0.3222642,-0.18555 0.5566406,-0.25391 0.2376284,-0.0716 0.4915344,-0.10742 0.7617188,-0.10742 0.4068982,0 0.7633432,0.0586 1.0693359,0.17578 0.309241,0.11719 0.5371054,0.2767 0.6835937,0.47852 0.1464801,0.19857 0.2473915,0.46549 0.3027344,0.80078 l -0.859375,0.11718 c -0.039066,-0.26692 -0.1529982,-0.47525 -0.3417969,-0.625 -0.1855499,-0.14973 -0.4492215,-0.2246 -0.7910156,-0.22461 -0.4036478,10e-6 -0.6917335,0.0667 -0.8642578,0.2002 -0.1725274,0.13347 -0.2587904,0.28972 -0.2587891,0.46875 -1.3e-6,0.11394 0.035806,0.21647 0.1074219,0.30762 0.071613,0.0944 0.1839177,0.17253 0.3369141,0.23437 0.087889,0.0326 0.3466776,0.10743 0.7763672,0.22461 0.6217416,0.16602 1.0546839,0.30274 1.2988281,0.41016 0.2473918,0.10417 0.4410765,0.25716 0.5810547,0.45898 0.1399694,0.20183 0.2099563,0.45248 0.2099609,0.75196 -4.6e-6,0.29297 -0.086267,0.56966 -0.2587891,0.83007 -0.169275,0.25717 -0.415043,0.45736 -0.7373046,0.60059 -0.322269,0.13997 -0.6868519,0.20996 -1.09375,0.20996 -0.67383,0 -1.1881524,-0.13997 -1.5429688,-0.41992 -0.3515631,-0.27995 -0.5761723,-0.69499 -0.6738281,-1.24512"
         id="path3631"
         inkscape:connector-curvature="0" />
      <path
         d="m 8.4375,396.57605 0.1269531,0.77637 c -0.2473983,0.0521 -0.4687522,0.0781 -0.6640625,0.0781 -0.3190121,0 -0.5664077,-0.0505 -0.7421875,-0.15137 -0.1757823,-0.10091 -0.2994801,-0.23274 -0.3710937,-0.3955 -0.071616,-0.16602 -0.1074227,-0.5127 -0.1074219,-1.04004 l 0,-2.9834 -0.6445313,0 0,-0.68359 0.6445313,0 0,-1.28418 0.8740234,-0.52735 0,1.81153 0.8837891,0 0,0.68359 -0.8837891,0 0,3.03223 c -1.7e-6,0.25065 0.014647,0.41178 0.043945,0.48339 0.03255,0.0716 0.083006,0.12859 0.1513672,0.1709 0.071613,0.0423 0.172524,0.0635 0.3027344,0.0635 0.097654,0 0.2262346,-0.0114 0.3857422,-0.0342"
         id="path3633"
         inkscape:connector-curvature="0" />
      <path
         d="m -26.728516,409.86218 0,-7.1582 0.947266,0 0,2.93945 3.720703,0 0,-2.93945 0.947266,0 0,7.1582 -0.947266,0 0,-3.37402 -3.720703,0 0,3.37402 -0.947266,0"
         id="path3635"
         inkscape:connector-curvature="0" />
      <path
         d="m -16.259766,409.22253 c -0.325524,0.2767 -0.639651,0.47201 -0.942382,0.58594 -0.299482,0.11393 -0.621748,0.1709 -0.966797,0.1709 -0.569663,0 -1.007488,-0.13835 -1.313477,-0.41504 -0.30599,-0.27995 -0.458985,-0.63639 -0.458984,-1.06933 -1e-6,-0.25391 0.05697,-0.48503 0.170898,-0.69336 0.117187,-0.21159 0.268554,-0.38086 0.454102,-0.50782 0.188801,-0.12695 0.400389,-0.22298 0.634765,-0.28808 0.172525,-0.0456 0.432941,-0.0895 0.78125,-0.13184 0.709633,-0.0846 1.232093,-0.18554 1.567383,-0.30273 0.0033,-0.12044 0.0049,-0.19694 0.0049,-0.2295 -4e-6,-0.35806 -0.08301,-0.61034 -0.249023,-0.75683 -0.224613,-0.19856 -0.558272,-0.29785 -1.000977,-0.29785 -0.413414,0 -0.719403,0.0732 -0.917969,0.21972 -0.195314,0.14324 -0.34017,0.39877 -0.43457,0.76661 l -0.859375,-0.11719 c 0.07812,-0.36784 0.206705,-0.66406 0.385742,-0.88867 0.179036,-0.22786 0.437824,-0.40202 0.776367,-0.52246 0.33854,-0.1237 0.730792,-0.18555 1.176758,-0.18555 0.442705,0 0.802405,0.0521 1.079102,0.15625 0.276688,0.10417 0.480139,0.23601 0.610351,0.39551 0.130204,0.15625 0.22135,0.35482 0.273438,0.5957 0.02929,0.14974 0.04394,0.41992 0.04395,0.81055 l 0,1.17187 c -5e-6,0.81706 0.0179,1.33464 0.05371,1.55274 0.03906,0.21484 0.113927,0.42155 0.224609,0.62011 l -0.917968,0 c -0.09115,-0.18229 -0.149744,-0.3955 -0.175782,-0.63965 m -0.07324,-1.96289 c -0.319014,0.13021 -0.797529,0.24089 -1.435547,0.33203 -0.36133,0.0521 -0.616864,0.11068 -0.766601,0.17579 -0.149741,0.0651 -0.265301,0.16113 -0.34668,0.28808 -0.08138,0.1237 -0.122072,0.26205 -0.12207,0.41504 -2e-6,0.23438 0.08789,0.42969 0.263672,0.58594 0.179034,0.15625 0.439451,0.23437 0.78125,0.23437 0.338539,0 0.639645,-0.0732 0.90332,-0.21972 0.263668,-0.14974 0.457353,-0.35319 0.581055,-0.61035 0.0944,-0.19857 0.141597,-0.49154 0.141601,-0.87891 l 0,-0.32227"
         id="path3637"
         inkscape:connector-curvature="0" />
      <path
         d="m -14.077148,409.86218 0,-5.18554 0.791015,0 0,0.7373 c 0.380858,-0.56966 0.930987,-0.85449 1.650391,-0.85449 0.312496,0 0.598954,0.057 0.859375,0.1709 0.263667,0.11068 0.460607,0.25716 0.59082,0.43945 0.130204,0.1823 0.2213495,0.39877 0.2734376,0.64941 0.032547,0.16277 0.048823,0.4476 0.048828,0.8545 l 0,3.18847 -0.8789066,0 0,-3.15429 c -3e-6,-0.35807 -0.03418,-0.625 -0.102539,-0.80079 -0.06836,-0.17903 -0.190433,-0.32063 -0.366211,-0.4248 -0.172529,-0.10742 -0.375979,-0.16113 -0.610351,-0.16113 -0.374352,0 -0.698244,0.11882 -0.97168,0.35644 -0.270184,0.23764 -0.405275,0.68848 -0.405273,1.35254 l 0,2.83203 -0.878906,0"
         id="path3639"
         inkscape:connector-curvature="0" />
      <path
         d="m -5.1464844,409.86218 0,-0.65429 c -0.3287797,0.51432 -0.8121777,0.77148 -1.4501953,0.77148 -0.4134136,0 -0.7942726,-0.11393 -1.1425781,-0.3418 -0.3450532,-0.22786 -0.6136076,-0.54524 -0.8056641,-0.95215 -0.1888025,-0.41015 -0.2832034,-0.88053 -0.2832031,-1.41113 -3e-7,-0.51757 0.086263,-0.98632 0.2587891,-1.40625 0.1725252,-0.42317 0.431314,-0.74706 0.7763672,-0.97168 0.3450503,-0.2246 0.7307921,-0.33691 1.1572265,-0.33691 0.3124972,0 0.5908172,0.0667 0.834961,0.20019 0.244137,0.13022 0.4427045,0.30112 0.5957031,0.5127 l 0,-2.56836 0.8740234,0 0,7.1582 -0.8154297,0 m -2.7783203,-2.58789 c -1.2e-6,0.66407 0.1399726,1.16049 0.4199219,1.48926 0.279946,0.32878 0.6103493,0.49316 0.9912109,0.49316 0.3841116,0 0.7096321,-0.15625 0.9765625,-0.46875 0.2701784,-0.31575 0.4052694,-0.79589 0.4052735,-1.44043 -4.1e-6,-0.70963 -0.1367227,-1.23046 -0.4101563,-1.5625 -0.2734408,-0.33202 -0.6103546,-0.49804 -1.0107422,-0.49804 -0.3906272,0 -0.7177753,0.15951 -0.9814453,0.47851 -0.260418,0.31902 -0.3906262,0.82195 -0.390625,1.50879"
         id="path3641"
         inkscape:connector-curvature="0" />
      <path
         d="m -2.9638672,409.86218 0,-7.1582 0.8789063,0 0,7.1582 -0.8789063,0"
         id="path3643"
         inkscape:connector-curvature="0" />
      <path
         d="m 2.8320313,408.19226 0.9082031,0.11231 c -0.1432342,0.5306 -0.4085334,0.94238 -0.7958985,1.23535 -0.3873737,0.29297 -0.8821649,0.43945 -1.484375,0.43945 -0.75846558,0 -1.36067852,-0.23275 -1.80664059,-0.69824 -0.44270892,-0.46875 -0.66406291,-1.12467 -0.66406251,-1.96778 -4e-7,-0.87239 0.2246088,-1.54947 0.67382814,-2.03125 0.44921726,-0.48176 1.03189897,-0.72265 1.74804686,-0.72265 0.6933559,0 1.2597616,0.23601 1.6992188,0.70801 0.4394482,0.47201 0.6591745,1.13607 0.6591797,1.99218 -5.2e-6,0.0521 -0.00163,0.13021 -0.00488,0.23438 l -3.86718746,0 c 0.03255077,0.56966 0.19368343,1.00586 0.48339844,1.30859 0.28971149,0.30274 0.65103922,0.4541 1.08398432,0.4541 0.3222625,0 0.5973273,-0.0846 0.8251954,-0.2539 0.2278607,-0.16927 0.4085245,-0.43945 0.5419922,-0.81055 m -2.88574224,-1.4209 2.89550784,0 c -0.039067,-0.43619 -0.1497437,-0.76334 -0.3320313,-0.98144 -0.2799515,-0.33854 -0.6429069,-0.50781 -1.0888672,-0.50782 -0.4036482,10e-6 -0.74381712,0.1351 -1.02050777,0.40528 -0.27343901,0.27018 -0.42480605,0.63151 -0.45410157,1.08398"
         id="path3645"
         inkscape:connector-curvature="0" />
      <path
         d="m 4.8388672,409.86218 0,-5.18554 0.7910156,0 0,0.78613 c 0.2018213,-0.36784 0.387368,-0.61035 0.5566406,-0.72754 0.1725239,-0.11718 0.3613258,-0.17578 0.5664063,-0.17578 0.2962211,0 0.5973276,0.0944 0.9033203,0.2832 l -0.3027344,0.81543 c -0.2148467,-0.12695 -0.4296902,-0.19042 -0.6445312,-0.19043 -0.1920596,1e-5 -0.3645855,0.0586 -0.5175782,0.17578 -0.1529966,0.11394 -0.262046,0.27344 -0.3271484,0.47852 -0.097658,0.3125 -0.1464859,0.6543 -0.1464844,1.02539 l 0,2.71484 -0.8789062,0"
         id="path3647"
         inkscape:connector-curvature="0" />
    </g>
    <g
       style="font-size:10px;font-style:normal;font-variant:normal;font-weight:normal;font-stretch:normal;text-align:center;line-height:125%;letter-spacing:0px;word-spacing:0px;writing-mode:lr-tb;text-anchor:middle;fill:#000000;fill-opacity:1;stroke:none;font-family:Arial;-inkscape-font-specification:Arial"
       id="text3246"
       transform="translate(31.040031,-7.4999838)" />
    <g
       transform="translate(191,326.66154)"
       style="font-size:40px;font-style:normal;font-weight:normal;line-height:125%;letter-spacing:0px;word-spacing:0px;fill:#000000;fill-opacity:1;stroke:none;font-family:Sans"
       id="text3458" />
    <g
       transform="translate(191,326.66154)"
       style="font-size:40px;font-style:normal;font-weight:normal;line-height:125%;letter-spacing:0px;word-spacing:0px;fill:#000000;fill-opacity:1;stroke:none;font-family:Sans"
       id="text3468" />
    <path
       style="fill:none;stroke:#000000;stroke-width:2;stroke-linecap:butt;stroke-linejoin:miter;stroke-miterlimit:4;stroke-opacity:1;stroke-dasharray:none;stroke-dashoffset:0;marker-end:url(#TriangleOutM)"
       d="m 20,392.3622 33,0"
       id="path3502"
       inkscape:connector-curvature="0" />
    <path
       style="fill:none;stroke:#000000;stroke-width:2;stroke-linecap:butt;stroke-linejoin:miter;stroke-miterlimit:4;stroke-opacity:1;stroke-dasharray:2, 2;stroke-dashoffset:0;marker-end:url(#TriangleOutM)"
       d="m 55,407.3622 -30,0"
       id="path3504"
       inkscape:connector-curvature="0" />
    <text
       sodipodi:linespacing="125%"
       id="text5083"
       y="402.36218"
       x="345"
       style="font-size:12px;font-style:normal;font-variant:normal;font-weight:normal;font-stretch:normal;text-align:start;line-height:125%;letter-spacing:0px;word-spacing:0px;writing-mode:lr-tb;text-anchor:start;fill:#000000;fill-opacity:1;stroke:none;font-family:Sans;-inkscape-font-specification:Sans"
       xml:space="preserve"><tspan
         y="402.36218"
         x="345"
         id="tspan5085"
         sodipodi:role="line">Node</tspan></text>
    <text
       xml:space="preserve"
       style="font-size:12px;font-style:normal;font-variant:normal;font-weight:normal;font-stretch:normal;text-align:start;line-height:125%;letter-spacing:0px;word-spacing:0px;writing-mode:lr-tb;text-anchor:start;fill:#000000;fill-opacity:1;stroke:none;font-family:Sans;-inkscape-font-specification:Sans"
       x="-132"
       y="401.36218"
       id="text5106"
       sodipodi:linespacing="125%"><tspan
         sodipodi:role="line"
         id="tspan5110"
         x="-132"
         y="401.36218">Client</tspan></text>
    <text
       xml:space="preserve"
       style="font-size:10px;font-style:normal;font-variant:normal;font-weight:normal;font-stretch:normal;text-align:start;line-height:125%;letter-spacing:0px;word-spacing:0px;writing-mode:lr-tb;text-anchor:start;fill:#000000;fill-opacity:1;stroke:none;font-family:Sans;-inkscape-font-specification:Sans"
       x="106"
       y="548.36218"
       id="text4146"
       sodipodi:linespacing="125%"><tspan
         sodipodi:role="line"
         id="tspan4154"
         x="106"
         y="548.36218">Script</tspan></text>
    <text
       sodipodi:linespacing="125%"
       id="text4150"
       y="518.06921"
       x="13.13578"
       style="font-size:10px;font-style:normal;font-variant:normal;font-weight:normal;font-stretch:normal;text-align:start;line-height:125%;letter-spacing:0px;word-spacing:0px;writing-mode:lr-tb;text-anchor:start;fill:#000000;fill-opacity:1;stroke:none;font-family:Sans;-inkscape-font-specification:Sans"
       xml:space="preserve"><tspan
         y="518.06921"
         x="13.13578"
         id="tspan4152"
         sodipodi:role="line">Paxos</tspan></text>
    <text
       sodipodi:linespacing="125%"
       id="text4160"
       y="548.06921"
       x="17.13578"
       style="font-size:10px;font-style:normal;font-variant:normal;font-weight:normal;font-stretch:normal;text-align:start;line-height:125%;letter-spacing:0px;word-spacing:0px;writing-mode:lr-tb;text-anchor:start;fill:#000000;fill-opacity:1;stroke:none;font-family:Sans;-inkscape-font-specification:Sans"
       xml:space="preserve"><tspan
         y="548.06921"
         x="17.13578"
         id="tspan4162"
         sodipodi:role="line">Script</tspan></text>
    <text
       sodipodi:linespacing="125%"
       id="text4164"
       y="548.36218"
       x="197.99998"
       style="font-size:10px;font-style:normal;font-variant:normal;font-weight:normal;font-stretch:normal;text-align:start;line-height:125%;letter-spacing:0px;word-spacing:0px;writing-mode:lr-tb;text-anchor:start;fill:#000000;fill-opacity:1;stroke:none;font-family:Sans;-inkscape-font-specification:Sans"
       xml:space="preserve"><tspan
         y="548.36218"
         x="197.99998"
         id="tspan4166"
         sodipodi:role="line">Script</tspan></text>
    <text
       sodipodi:linespacing="125%"
       id="text4170"
       y="407.36218"
       x="100"
       style="font-size:10px;font-style:normal;font-variant:normal;font-weight:normal;font-stretch:normal;text-align:start;line-height:125%;letter-spacing:0px;word-spacing:0px;writing-mode:lr-tb;text-anchor:start;fill:#000000;fill-opacity:1;stroke:none;font-family:Sans;-inkscape-font-specification:Sans"
       xml:space="preserve"><tspan
         y="407.36218"
         x="100"
         id="tspan4172"
         sodipodi:role="line">Script</tspan></text>
    <text
       xml:space="preserve"
       style="font-size:10px;font-style:normal;font-variant:normal;font-weight:normal;font-stretch:normal;text-align:start;line-height:125%;letter-spacing:0px;word-spacing:0px;writing-mode:lr-tb;text-anchor:start;fill:#000000;fill-opacity:1;stroke:none;font-family:Sans;-inkscape-font-specification:Sans"
       x="72"
       y="385.36218"
       id="text4174"
       sodipodi:linespacing="125%"><tspan
         sodipodi:role="line"
         id="tspan4178"
         x="72"
         y="385.36218">Distributed Service</tspan></text>
    <path
       style="fill:none;stroke:#000000;stroke-width:2;stroke-linecap:butt;stroke-linejoin:miter;stroke-miterlimit:4;stroke-opacity:1;stroke-dasharray:none;stroke-dashoffset:0;marker-end:url(#TriangleOutM)"
       d="m 110,429.36218 0,33"
       id="path3162"
       inkscape:connector-curvature="0" />
    <path
       style="fill:none;stroke:#000000;stroke-width:2;stroke-linecap:butt;stroke-linejoin:miter;stroke-miterlimit:4;stroke-opacity:1;stroke-dasharray:2, 2;stroke-dashoffset:0;marker-end:url(#TriangleOutM)"
       d="m 130,466.36218 0,-30"
       id="path3164"
       inkscape:connector-curvature="0" />
    <g
       transform="translate(-0.3837891,-3.8554684)"
       id="g3984"
       style="font-size:10px;font-style:normal;font-variant:normal;font-weight:normal;font-stretch:normal;text-align:center;line-height:125%;letter-spacing:0px;word-spacing:0px;writing-mode:lr-tb;text-anchor:middle;fill:#000000;fill-opacity:1;stroke:none;font-family:Arial;-inkscape-font-specification:Arial">
      <path
         inkscape:connector-curvature="0"
         id="path3986"
         d="m -27.84668,397.36218 0,-7.1582 3.173828,0 c 0.638017,10e-6 1.123042,0.0651 1.455079,0.19531 0.332025,0.12696 0.597324,0.3532 0.795898,0.67871 0.198561,0.32553 0.297845,0.68523 0.297852,1.0791 -7e-6,0.50782 -0.164395,0.93588 -0.493164,1.28418 -0.328782,0.34832 -0.836594,0.56967 -1.523438,0.66407 0.250646,0.12044 0.441076,0.23926 0.571289,0.35644 0.276687,0.25391 0.538731,0.57129 0.786133,0.95215 l 1.245117,1.94824 -1.191406,0 -0.947266,-1.48926 c -0.276697,-0.42968 -0.504562,-0.75846 -0.683594,-0.98632 -0.17904,-0.22787 -0.340173,-0.38737 -0.483398,-0.47852 -0.139978,-0.0911 -0.283207,-0.15462 -0.429687,-0.19043 -0.107426,-0.0228 -0.283207,-0.0342 -0.527344,-0.0342 l -1.098633,0 0,3.17871 -0.947266,0 m 0.947266,-3.99902 2.036133,0 c 0.432938,0 0.77148,-0.0439 1.015625,-0.13184 0.244135,-0.0911 0.429682,-0.23437 0.55664,-0.42968 0.126948,-0.19857 0.190425,-0.41341 0.19043,-0.64454 -5e-6,-0.33853 -0.123703,-0.61685 -0.371094,-0.83496 -0.244145,-0.21809 -0.631515,-0.32714 -1.162109,-0.32714 l -2.265625,0 0,2.36816" />
      <path
         inkscape:connector-curvature="0"
         id="path3988"
         d="m -17.197266,395.69226 0.908204,0.11231 c -0.143235,0.5306 -0.408534,0.94238 -0.795899,1.23535 -0.387374,0.29297 -0.882165,0.43945 -1.484375,0.43945 -0.758466,0 -1.360678,-0.23275 -1.806641,-0.69824 -0.442708,-0.46875 -0.664062,-1.12467 -0.664062,-1.96778 0,-0.87239 0.224609,-1.54947 0.673828,-2.03125 0.449217,-0.48176 1.031899,-0.72265 1.748047,-0.72265 0.693356,0 1.259762,0.23601 1.699219,0.70801 0.439448,0.47201 0.659174,1.13607 0.659179,1.99218 -5e-6,0.0521 -0.0016,0.13021 -0.0049,0.23438 l -3.867188,0 c 0.03255,0.56966 0.193683,1.00586 0.483399,1.30859 0.289711,0.30274 0.651039,0.4541 1.083984,0.4541 0.322262,0 0.597327,-0.0846 0.825195,-0.2539 0.227861,-0.16927 0.408525,-0.43945 0.541992,-0.81055 m -2.885742,-1.4209 2.895508,0 c -0.03907,-0.43619 -0.149744,-0.76334 -0.332031,-0.98144 -0.279952,-0.33854 -0.642907,-0.50781 -1.088867,-0.50782 -0.403649,10e-6 -0.743818,0.1351 -1.020508,0.40528 -0.273439,0.27018 -0.424806,0.63151 -0.454102,1.08398" />
      <path
         inkscape:connector-curvature="0"
         id="path3990"
         d="m -11.875,399.34949 0,-2.53907 c -0.136723,0.19206 -0.32878,0.35157 -0.576172,0.47852 -0.244144,0.12695 -0.50456,0.19043 -0.78125,0.19043 -0.615236,0 -1.145835,-0.24577 -1.591797,-0.7373 -0.442709,-0.49154 -0.664063,-1.16537 -0.664062,-2.02149 -10e-7,-0.52083 0.08952,-0.98795 0.268554,-1.40137 0.182291,-0.4134 0.444335,-0.7259 0.786133,-0.9375 0.345051,-0.21483 0.722654,-0.32226 1.132813,-0.32226 0.641273,0 1.145829,0.27019 1.513672,0.81055 l 0,-0.69336 0.791015,0 0,7.17285 -0.878906,0 m -2.709961,-4.59473 c -1e-6,0.66732 0.139973,1.16862 0.419922,1.50391 0.279946,0.33203 0.615232,0.49804 1.005859,0.49804 0.374346,0 0.696612,-0.15787 0.966797,-0.47363 0.270179,-0.31901 0.40527,-0.80241 0.405274,-1.45019 -4e-6,-0.69011 -0.143233,-1.20931 -0.429688,-1.55762 -0.283206,-0.3483 -0.616865,-0.52246 -1.000976,-0.52246 -0.380862,0 -0.704755,0.16276 -0.97168,0.48828 -0.263673,0.32227 -0.395509,0.82683 -0.395508,1.51367" />
      <path
         inkscape:connector-curvature="0"
         id="path3992"
         d="m -6.2158203,397.36218 0,-0.76172 c -0.4036495,0.58594 -0.9521516,0.87891 -1.6455078,0.87891 -0.3059917,0 -0.5924498,-0.0586 -0.859375,-0.17578 -0.2636732,-0.11719 -0.4606131,-0.26367 -0.5908203,-0.43945 -0.126954,-0.17904 -0.2164721,-0.39714 -0.2685547,-0.6543 -0.035808,-0.17253 -0.053712,-0.44596 -0.053711,-0.82031 l 0,-3.21289 0.8789063,0 0,2.87597 c -1.5e-6,0.45899 0.017902,0.76823 0.053711,0.92774 0.055337,0.23112 0.1725243,0.41341 0.3515625,0.54687 0.1790344,0.13021 0.4003883,0.19531 0.6640625,0.19531 0.263669,0 0.5110646,-0.0667 0.7421875,-0.20019 0.2311163,-0.13672 0.3938765,-0.32064 0.4882813,-0.55176 0.097652,-0.23437 0.1464804,-0.57291 0.1464844,-1.01562 l 0,-2.77832 0.8789062,0 0,5.18554 -0.7861328,0" />
      <path
         inkscape:connector-curvature="0"
         id="path3994"
         d="m -0.49804688,395.69226 0.90820313,0.11231 c -0.14323414,0.5306 -0.40853335,0.94238 -0.79589844,1.23535 -0.38737372,0.29297 -0.88216491,0.43945 -1.48437501,0.43945 -0.7584656,0 -1.3606785,-0.23275 -1.8066406,-0.69824 -0.4427089,-0.46875 -0.6640629,-1.12467 -0.6640625,-1.96778 -4e-7,-0.87239 0.2246088,-1.54947 0.6738281,-2.03125 0.4492173,-0.48176 1.031899,-0.72265 1.7480469,-0.72265 0.6933559,0 1.25976156,0.23601 1.69921874,0.70801 0.4394482,0.47201 0.65917454,1.13607 0.65917969,1.99218 -5.15e-6,0.0521 -0.001633,0.13021 -0.004883,0.23438 l -3.86718753,0 c 0.032551,0.56966 0.1936834,1.00586 0.4833984,1.30859 0.2897115,0.30274 0.6510393,0.4541 1.0839844,0.4541 0.3222625,0 0.5973273,-0.0846 0.8251953,-0.2539 0.22786075,-0.16927 0.40852463,-0.43945 0.54199224,-0.81055 m -2.88574224,-1.4209 2.89550787,0 c -0.0390667,-0.43619 -0.14974365,-0.76334 -0.33203125,-0.98144 -0.27995152,-0.33854 -0.64290692,-0.50781 -1.08886722,-0.50782 -0.4036482,10e-6 -0.7438171,0.1351 -1.0205078,0.40528 -0.273439,0.27018 -0.424806,0.63151 -0.4541016,1.08398" />
      <path
         inkscape:connector-curvature="0"
         id="path3996"
         d="m 1.1669922,395.81433 0.8691406,-0.13672 c 0.048827,0.34831 0.1839179,0.61524 0.4052735,0.80078 0.2246075,0.18555 0.5371072,0.27832 0.9375,0.27832 0.4036429,0 0.7031217,-0.0814 0.8984374,-0.24414 0.1953089,-0.16601 0.2929651,-0.3597 0.2929688,-0.58105 -3.7e-6,-0.19857 -0.086267,-0.35482 -0.2587891,-0.46875 -0.120446,-0.0781 -0.4199249,-0.17741 -0.8984375,-0.29785 -0.6445331,-0.16276 -1.0921238,-0.30273 -1.3427734,-0.41992 -0.2473968,-0.12044 -0.4361987,-0.28483 -0.5664063,-0.49317 -0.1269536,-0.21158 -0.1904301,-0.44433 -0.1904296,-0.69824 -5e-7,-0.23112 0.052083,-0.44433 0.15625,-0.63965 0.1074211,-0.19856 0.2522777,-0.36295 0.4345703,-0.49316 0.1367175,-0.10091 0.3222642,-0.18555 0.5566406,-0.25391 0.2376284,-0.0716 0.4915344,-0.10742 0.7617188,-0.10742 0.4068982,0 0.7633432,0.0586 1.0693359,0.17578 0.309241,0.11719 0.5371054,0.2767 0.6835937,0.47852 0.1464801,0.19857 0.2473915,0.46549 0.3027344,0.80078 l -0.859375,0.11718 c -0.039066,-0.26692 -0.1529982,-0.47525 -0.3417969,-0.625 -0.1855499,-0.14973 -0.4492215,-0.2246 -0.7910156,-0.22461 -0.4036478,10e-6 -0.6917335,0.0667 -0.8642578,0.2002 -0.1725274,0.13347 -0.2587904,0.28972 -0.2587891,0.46875 -1.3e-6,0.11394 0.035806,0.21647 0.1074219,0.30762 0.071613,0.0944 0.1839177,0.17253 0.3369141,0.23437 0.087889,0.0326 0.3466776,0.10743 0.7763672,0.22461 0.6217416,0.16602 1.0546839,0.30274 1.2988281,0.41016 0.2473918,0.10417 0.4410765,0.25716 0.5810547,0.45898 0.1399694,0.20183 0.2099563,0.45248 0.2099609,0.75196 -4.6e-6,0.29297 -0.086267,0.56966 -0.2587891,0.83007 -0.169275,0.25717 -0.415043,0.45736 -0.7373046,0.60059 -0.322269,0.13997 -0.6868519,0.20996 -1.09375,0.20996 -0.67383,0 -1.1881524,-0.13997 -1.5429688,-0.41992 -0.3515631,-0.27995 -0.5761723,-0.69499 -0.6738281,-1.24512" />
      <path
         inkscape:connector-curvature="0"
         id="path3998"
         d="m 8.4375,396.57605 0.1269531,0.77637 c -0.2473983,0.0521 -0.4687522,0.0781 -0.6640625,0.0781 -0.3190121,0 -0.5664077,-0.0505 -0.7421875,-0.15137 -0.1757823,-0.10091 -0.2994801,-0.23274 -0.3710937,-0.3955 -0.071616,-0.16602 -0.1074227,-0.5127 -0.1074219,-1.04004 l 0,-2.9834 -0.6445313,0 0,-0.68359 0.6445313,0 0,-1.28418 0.8740234,-0.52735 0,1.81153 0.8837891,0 0,0.68359 -0.8837891,0 0,3.03223 c -1.7e-6,0.25065 0.014647,0.41178 0.043945,0.48339 0.03255,0.0716 0.083006,0.12859 0.1513672,0.1709 0.071613,0.0423 0.172524,0.0635 0.3027344,0.0635 0.097654,0 0.2262346,-0.0114 0.3857422,-0.0342" />
      <path
         inkscape:connector-curvature="0"
         id="path4000"
         d="m -26.728516,409.86218 0,-7.1582 0.947266,0 0,2.93945 3.720703,0 0,-2.93945 0.947266,0 0,7.1582 -0.947266,0 0,-3.37402 -3.720703,0 0,3.37402 -0.947266,0" />
      <path
         inkscape:connector-curvature="0"
         id="path4002"
         d="m -16.259766,409.22253 c -0.325524,0.2767 -0.639651,0.47201 -0.942382,0.58594 -0.299482,0.11393 -0.621748,0.1709 -0.966797,0.1709 -0.569663,0 -1.007488,-0.13835 -1.313477,-0.41504 -0.30599,-0.27995 -0.458985,-0.63639 -0.458984,-1.06933 -1e-6,-0.25391 0.05697,-0.48503 0.170898,-0.69336 0.117187,-0.21159 0.268554,-0.38086 0.454102,-0.50782 0.188801,-0.12695 0.400389,-0.22298 0.634765,-0.28808 0.172525,-0.0456 0.432941,-0.0895 0.78125,-0.13184 0.709633,-0.0846 1.232093,-0.18554 1.567383,-0.30273 0.0033,-0.12044 0.0049,-0.19694 0.0049,-0.2295 -4e-6,-0.35806 -0.08301,-0.61034 -0.249023,-0.75683 -0.224613,-0.19856 -0.558272,-0.29785 -1.000977,-0.29785 -0.413414,0 -0.719403,0.0732 -0.917969,0.21972 -0.195314,0.14324 -0.34017,0.39877 -0.43457,0.76661 l -0.859375,-0.11719 c 0.07812,-0.36784 0.206705,-0.66406 0.385742,-0.88867 0.179036,-0.22786 0.437824,-0.40202 0.776367,-0.52246 0.33854,-0.1237 0.730792,-0.18555 1.176758,-0.18555 0.442705,0 0.802405,0.0521 1.079102,0.15625 0.276688,0.10417 0.480139,0.23601 0.610351,0.39551 0.130204,0.15625 0.22135,0.35482 0.273438,0.5957 0.02929,0.14974 0.04394,0.41992 0.04395,0.81055 l 0,1.17187 c -5e-6,0.81706 0.0179,1.33464 0.05371,1.55274 0.03906,0.21484 0.113927,0.42155 0.224609,0.62011 l -0.917968,0 c -0.09115,-0.18229 -0.149744,-0.3955 -0.175782,-0.63965 m -0.07324,-1.96289 c -0.319014,0.13021 -0.797529,0.24089 -1.435547,0.33203 -0.36133,0.0521 -0.616864,0.11068 -0.766601,0.17579 -0.149741,0.0651 -0.265301,0.16113 -0.34668,0.28808 -0.08138,0.1237 -0.122072,0.26205 -0.12207,0.41504 -2e-6,0.23438 0.08789,0.42969 0.263672,0.58594 0.179034,0.15625 0.439451,0.23437 0.78125,0.23437 0.338539,0 0.639645,-0.0732 0.90332,-0.21972 0.263668,-0.14974 0.457353,-0.35319 0.581055,-0.61035 0.0944,-0.19857 0.141597,-0.49154 0.141601,-0.87891 l 0,-0.32227" />
      <path
         inkscape:connector-curvature="0"
         id="path4004"
         d="m -14.077148,409.86218 0,-5.18554 0.791015,0 0,0.7373 c 0.380858,-0.56966 0.930987,-0.85449 1.650391,-0.85449 0.312496,0 0.598954,0.057 0.859375,0.1709 0.263667,0.11068 0.460607,0.25716 0.59082,0.43945 0.130204,0.1823 0.2213495,0.39877 0.2734376,0.64941 0.032547,0.16277 0.048823,0.4476 0.048828,0.8545 l 0,3.18847 -0.8789066,0 0,-3.15429 c -3e-6,-0.35807 -0.03418,-0.625 -0.102539,-0.80079 -0.06836,-0.17903 -0.190433,-0.32063 -0.366211,-0.4248 -0.172529,-0.10742 -0.375979,-0.16113 -0.610351,-0.16113 -0.374352,0 -0.698244,0.11882 -0.97168,0.35644 -0.270184,0.23764 -0.405275,0.68848 -0.405273,1.35254 l 0,2.83203 -0.878906,0" />
      <path
         inkscape:connector-curvature="0"
         id="path4006"
         d="m -5.1464844,409.86218 0,-0.65429 c -0.3287797,0.51432 -0.8121777,0.77148 -1.4501953,0.77148 -0.4134136,0 -0.7942726,-0.11393 -1.1425781,-0.3418 -0.3450532,-0.22786 -0.6136076,-0.54524 -0.8056641,-0.95215 -0.1888025,-0.41015 -0.2832034,-0.88053 -0.2832031,-1.41113 -3e-7,-0.51757 0.086263,-0.98632 0.2587891,-1.40625 0.1725252,-0.42317 0.431314,-0.74706 0.7763672,-0.97168 0.3450503,-0.2246 0.7307921,-0.33691 1.1572265,-0.33691 0.3124972,0 0.5908172,0.0667 0.834961,0.20019 0.244137,0.13022 0.4427045,0.30112 0.5957031,0.5127 l 0,-2.56836 0.8740234,0 0,7.1582 -0.8154297,0 m -2.7783203,-2.58789 c -1.2e-6,0.66407 0.1399726,1.16049 0.4199219,1.48926 0.279946,0.32878 0.6103493,0.49316 0.9912109,0.49316 0.3841116,0 0.7096321,-0.15625 0.9765625,-0.46875 0.2701784,-0.31575 0.4052694,-0.79589 0.4052735,-1.44043 -4.1e-6,-0.70963 -0.1367227,-1.23046 -0.4101563,-1.5625 -0.2734408,-0.33202 -0.6103546,-0.49804 -1.0107422,-0.49804 -0.3906272,0 -0.7177753,0.15951 -0.9814453,0.47851 -0.260418,0.31902 -0.3906262,0.82195 -0.390625,1.50879" />
      <path
         inkscape:connector-curvature="0"
         id="path4008"
         d="m -2.9638672,409.86218 0,-7.1582 0.8789063,0 0,7.1582 -0.8789063,0" />
      <path
         inkscape:connector-curvature="0"
         id="path4010"
         d="m 2.8320313,408.19226 0.9082031,0.11231 c -0.1432342,0.5306 -0.4085334,0.94238 -0.7958985,1.23535 -0.3873737,0.29297 -0.8821649,0.43945 -1.484375,0.43945 -0.75846558,0 -1.36067852,-0.23275 -1.80664059,-0.69824 -0.44270892,-0.46875 -0.66406291,-1.12467 -0.66406251,-1.96778 -4e-7,-0.87239 0.2246088,-1.54947 0.67382814,-2.03125 0.44921726,-0.48176 1.03189897,-0.72265 1.74804686,-0.72265 0.6933559,0 1.2597616,0.23601 1.6992188,0.70801 0.4394482,0.47201 0.6591745,1.13607 0.6591797,1.99218 -5.2e-6,0.0521 -0.00163,0.13021 -0.00488,0.23438 l -3.86718746,0 c 0.03255077,0.56966 0.19368343,1.00586 0.48339844,1.30859 0.28971149,0.30274 0.65103922,0.4541 1.08398432,0.4541 0.3222625,0 0.5973273,-0.0846 0.8251954,-0.2539 0.2278607,-0.16927 0.4085245,-0.43945 0.5419922,-0.81055 m -2.88574224,-1.4209 2.89550784,0 c -0.039067,-0.43619 -0.1497437,-0.76334 -0.3320313,-0.98144 -0.2799515,-0.33854 -0.6429069,-0.50781 -1.0888672,-0.50782 -0.4036482,10e-6 -0.74381712,0.1351 -1.02050777,0.40528 -0.27343901,0.27018 -0.42480605,0.63151 -0.45410157,1.08398" />
      <path
         inkscape:connector-curvature="0"
         id="path4012"
         d="m 4.8388672,409.86218 0,-5.18554 0.7910156,0 0,0.78613 c 0.2018213,-0.36784 0.387368,-0.61035 0.5566406,-0.72754 0.1725239,-0.11718 0.3613258,-0.17578 0.5664063,-0.17578 0.2962211,0 0.5973276,0.0944 0.9033203,0.2832 l -0.3027344,0.81543 c -0.2148467,-0.12695 -0.4296902,-0.19042 -0.6445312,-0.19043 -0.1920596,1e-5 -0.3645855,0.0586 -0.5175782,0.17578 -0.1529966,0.11394 -0.262046,0.27344 -0.3271484,0.47852 -0.097658,0.3125 -0.1464859,0.6543 -0.1464844,1.02539 l 0,2.71484 -0.8789062,0" />
    </g>
    <path
       style="fill:none;stroke:#000000;stroke-width:2;stroke-linecap:butt;stroke-linejoin:miter;stroke-miterlimit:4;stroke-opacity:1;stroke-dasharray:none;stroke-dashoffset:0;marker-end:url(#TriangleOutM)"
       d="m 187,392.3622 33,0"
       id="path4029"
       inkscape:connector-curvature="0" />
    <path
       style="fill:none;stroke:#000000;stroke-width:2;stroke-linecap:butt;stroke-linejoin:miter;stroke-miterlimit:4;stroke-opacity:1;stroke-dasharray:2, 2;stroke-dashoffset:0;marker-end:url(#TriangleOutM)"
       d="m 222,407.3622 -30,0"
       id="path4031"
       inkscape:connector-curvature="0" />
    <path
       inkscape:connector-curvature="0"
       id="path4033"
       d="m 285,391.36218 40,0"
       style="fill:none;stroke:#000000;stroke-width:2;stroke-linecap:butt;stroke-linejoin:miter;stroke-miterlimit:4;stroke-opacity:1;stroke-dasharray:none;stroke-dashoffset:0;marker-end:url(#TriangleOutM)" />
    <path
       inkscape:connector-curvature="0"
       id="path4035"
       d="m 330,406.36218 -40,0"
       style="fill:none;stroke:#000000;stroke-width:2;stroke-linecap:butt;stroke-linejoin:miter;stroke-miterlimit:4;stroke-opacity:1;stroke-dasharray:2, 2;stroke-dashoffset:0;marker-end:url(#TriangleOutM)" />
    <text
       xml:space="preserve"
       style="font-size:10px;font-style:normal;font-variant:normal;font-weight:normal;font-stretch:normal;text-align:start;line-height:125%;letter-spacing:0px;word-spacing:0px;writing-mode:lr-tb;text-anchor:start;fill:#000000;fill-opacity:1;stroke:none;font-family:Sans;-inkscape-font-specification:Sans"
       x="11"
       y="492.36218"
       id="text3173"
       sodipodi:linespacing="125%"><tspan
         sodipodi:role="line"
         id="tspan3175"
         x="11"
         y="492.36218">Protocol</tspan></text>
  </g>
</svg>
