<?xml version="1.0" encoding="UTF-8" standalone="no"?>
<!-- Created with Inkscape (http://www.inkscape.org/) -->

<svg
   xmlns:osb="http://www.openswatchbook.org/uri/2009/osb"
   xmlns:dc="http://purl.org/dc/elements/1.1/"
   xmlns:cc="http://creativecommons.org/ns#"
   xmlns:rdf="http://www.w3.org/1999/02/22-rdf-syntax-ns#"
   xmlns:svg="http://www.w3.org/2000/svg"
   xmlns="http://www.w3.org/2000/svg"
   xmlns:xlink="http://www.w3.org/1999/xlink"
   xmlns:sodipodi="http://sodipodi.sourceforge.net/DTD/sodipodi-0.dtd"
   xmlns:inkscape="http://www.inkscape.org/namespaces/inkscape"
   width="554.06519"
   height="252.20775"
   id="svg2"
   version="1.1"
   inkscape:version="0.48.5 r10040"
   sodipodi:docname="round_overview_programming_model.svg"
   inkscape:export-filename="/Users/skonno/Src/round/doc/img/round_overview_programming_model.png"
   inkscape:export-xdpi="98.389999"
   inkscape:export-ydpi="98.389999">
  <defs
     id="defs4">
    <marker
       inkscape:stockid="TriangleInM"
       orient="auto"
       refY="0"
       refX="0"
       id="TriangleInM"
       style="overflow:visible">
      <path
         id="path4064"
         d="m 5.77,0 -8.65,5 0,-10 8.65,5 z"
         style="fill-rule:evenodd;stroke:#000000;stroke-width:1pt"
         transform="scale(-0.4,-0.4)"
         inkscape:connector-curvature="0" />
    </marker>
    <marker
       inkscape:stockid="TriangleOutL"
       orient="auto"
       refY="0"
       refX="0"
       id="TriangleOutL"
       style="overflow:visible">
      <path
         id="path4823"
         d="m 5.77,0 -8.65,5 0,-10 8.65,5 z"
         style="fill-rule:evenodd;stroke:#000000;stroke-width:1pt"
         transform="scale(0.8,0.8)"
         inkscape:connector-curvature="0" />
    </marker>
    <marker
       inkscape:stockid="TriangleOutM"
       orient="auto"
       refY="0"
       refX="0"
       id="TriangleOutM"
       style="overflow:visible">
      <path
         id="path4826"
         d="m 5.77,0 -8.65,5 0,-10 8.65,5 z"
         style="fill-rule:evenodd;stroke:#000000;stroke-width:1pt"
         transform="scale(0.4,0.4)"
         inkscape:connector-curvature="0" />
    </marker>
    <inkscape:perspective
       sodipodi:type="inkscape:persp3d"
       inkscape:vp_x="0 : 110.5 : 1"
       inkscape:vp_y="0 : 1000 : 0"
       inkscape:vp_z="478 : 110.5 : 1"
       inkscape:persp3d-origin="239 : 73.666667 : 1"
       id="perspective3029" />
    <marker
       inkscape:stockid="TriangleOutS"
       orient="auto"
       refY="0"
       refX="0"
       id="TriangleOutS"
       style="overflow:visible">
      <path
         id="path4045"
         d="m 5.77,0 -8.65,5 0,-10 8.65,5 z"
         style="fill-rule:evenodd;stroke:#000000;stroke-width:1pt"
         transform="scale(0.2,0.2)"
         inkscape:connector-curvature="0" />
    </marker>
    <marker
       inkscape:stockid="Arrow1Mend"
       orient="auto"
       refY="0"
       refX="0"
       id="Arrow1Mend"
       style="overflow:visible">
      <path
         id="path3906"
         d="M 0,0 5,-5 -12.5,0 5,5 0,0 z"
         style="fill-rule:evenodd;stroke:#000000;stroke-width:1pt"
         transform="matrix(-0.4,0,0,-0.4,-4,0)"
         inkscape:connector-curvature="0" />
    </marker>
    <marker
       inkscape:stockid="Arrow1Lend"
       orient="auto"
       refY="0"
       refX="0"
       id="Arrow1Lend"
       style="overflow:visible">
      <path
         id="path3900"
         d="M 0,0 5,-5 -12.5,0 5,5 0,0 z"
         style="fill-rule:evenodd;stroke:#000000;stroke-width:1pt"
         transform="matrix(-0.8,0,0,-0.8,-10,0)"
         inkscape:connector-curvature="0" />
    </marker>
    <marker
       inkscape:stockid="Arrow2Lend"
       orient="auto"
       refY="0"
       refX="0"
       id="Arrow2Lend"
       style="overflow:visible">
      <path
         id="path3918"
         style="fill-rule:evenodd;stroke-width:0.625;stroke-linejoin:round"
         d="M 8.7185878,4.0337352 -2.2072895,0.01601326 8.7185884,-4.0017078 c -1.7454984,2.3720609 -1.7354408,5.6174519 -6e-7,8.035443 z"
         transform="matrix(-1.1,0,0,-1.1,-1.1,0)"
         inkscape:connector-curvature="0" />
    </marker>
    <marker
       inkscape:stockid="Arrow1Send"
       orient="auto"
       refY="0"
       refX="0"
       id="Arrow1Send"
       style="overflow:visible">
      <path
         id="path3912"
         d="M 0,0 5,-5 -12.5,0 5,5 0,0 z"
         style="fill-rule:evenodd;stroke:#000000;stroke-width:1pt"
         transform="matrix(-0.2,0,0,-0.2,-1.2,0)"
         inkscape:connector-curvature="0" />
    </marker>
    <linearGradient
       id="linearGradient5205"
       osb:paint="solid">
      <stop
         style="stop-color:#370000;stop-opacity:1;"
         offset="0"
         id="stop5207" />
    </linearGradient>
    <linearGradient
       id="linearGradient907"
       xlink:href="#linearGradient900" />
    <linearGradient
       id="linearGradient906"
       xlink:href="#linearGradient900" />
    <linearGradient
       id="linearGradient905"
       xlink:href="#linearGradient900" />
    <linearGradient
       id="linearGradient904"
       xlink:href="#linearGradient900" />
    <linearGradient
       id="linearGradient903"
       xlink:href="#linearGradient900" />
    <linearGradient
       id="linearGradient900">
      <stop
         offset="0"
         id="stop901"
         style="stop-color: #000000;stop-opacity: 1.0;" />
      <stop
         offset="1"
         id="stop902"
         style="stop-color:#ffffff;stop-opacity:1;" />
    </linearGradient>
    <linearGradient
       id="linearGradient775"
       xlink:href="#linearGradient772" />
    <linearGradient
       id="linearGradient772">
      <stop
         offset="0"
         id="stop773"
         style="stop-color: #000000;stop-opacity: 1.0;" />
      <stop
         offset="1"
         id="stop774"
         style="stop-color:#ffffff;stop-opacity:1;" />
    </linearGradient>
    <linearGradient
       id="linearGradient907-9"
       xlink:href="#linearGradient900-2" />
    <linearGradient
       id="linearGradient906-7"
       xlink:href="#linearGradient900-2" />
    <linearGradient
       id="linearGradient905-2"
       xlink:href="#linearGradient900-2" />
    <linearGradient
       id="linearGradient904-9"
       xlink:href="#linearGradient900-2" />
    <linearGradient
       id="linearGradient903-7"
       xlink:href="#linearGradient900-2" />
    <linearGradient
       id="linearGradient900-2">
      <stop
         offset="0"
         id="stop901-5"
         style="stop-color: #000000;stop-opacity: 1.0;" />
      <stop
         offset="1"
         id="stop902-5"
         style="stop-color:#ffffff;stop-opacity:1;" />
    </linearGradient>
    <linearGradient
       id="linearGradient900-6">
      <stop
         style="stop-color: #000000;stop-opacity: 1.0;"
         id="stop901-52"
         offset="0" />
      <stop
         style="stop-color:#ffffff;stop-opacity:1;"
         id="stop902-54"
         offset="1" />
    </linearGradient>
    <linearGradient
       xlink:href="#linearGradient900-6"
       id="linearGradient903-8" />
    <linearGradient
       xlink:href="#linearGradient900-6"
       id="linearGradient904-8" />
    <linearGradient
       xlink:href="#linearGradient900-6"
       id="linearGradient905-0" />
    <linearGradient
       xlink:href="#linearGradient900-6"
       id="linearGradient906-4" />
    <linearGradient
       xlink:href="#linearGradient900-6"
       id="linearGradient907-2" />
    <linearGradient
       osb:paint="solid"
       id="linearGradient5205-5">
      <stop
         id="stop5207-1"
         offset="0"
         style="stop-color:#370000;stop-opacity:1;" />
    </linearGradient>
    <marker
       style="overflow:visible"
       id="Arrow1Send-0"
       refX="0"
       refY="0"
       orient="auto"
       inkscape:stockid="Arrow1Send">
      <path
         inkscape:connector-curvature="0"
         transform="matrix(-0.2,0,0,-0.2,-1.2,0)"
         style="fill-rule:evenodd;stroke:#000000;stroke-width:1pt"
         d="M 0,0 5,-5 -12.5,0 5,5 0,0 z"
         id="path3912-6" />
    </marker>
    <marker
       style="overflow:visible"
       id="Arrow2Lend-1"
       refX="0"
       refY="0"
       orient="auto"
       inkscape:stockid="Arrow2Lend">
      <path
         inkscape:connector-curvature="0"
         transform="matrix(-1.1,0,0,-1.1,-1.1,0)"
         d="M 8.7185878,4.0337352 -2.2072895,0.01601326 8.7185884,-4.0017078 c -1.7454984,2.3720609 -1.7354408,5.6174519 -6e-7,8.035443 z"
         style="fill-rule:evenodd;stroke-width:0.625;stroke-linejoin:round"
         id="path3918-9" />
    </marker>
    <marker
       style="overflow:visible"
       id="Arrow1Lend-8"
       refX="0"
       refY="0"
       orient="auto"
       inkscape:stockid="Arrow1Lend">
      <path
         inkscape:connector-curvature="0"
         transform="matrix(-0.8,0,0,-0.8,-10,0)"
         style="fill-rule:evenodd;stroke:#000000;stroke-width:1pt"
         d="M 0,0 5,-5 -12.5,0 5,5 0,0 z"
         id="path3900-7" />
    </marker>
    <marker
       style="overflow:visible"
       id="Arrow1Mend-1"
       refX="0"
       refY="0"
       orient="auto"
       inkscape:stockid="Arrow1Mend">
      <path
         inkscape:connector-curvature="0"
         transform="matrix(-0.4,0,0,-0.4,-4,0)"
         style="fill-rule:evenodd;stroke:#000000;stroke-width:1pt"
         d="M 0,0 5,-5 -12.5,0 5,5 0,0 z"
         id="path3906-5" />
    </marker>
    <marker
       style="overflow:visible"
       id="TriangleOutS-6"
       refX="0"
       refY="0"
       orient="auto"
       inkscape:stockid="TriangleOutS">
      <path
         inkscape:connector-curvature="0"
         transform="scale(0.2,0.2)"
         style="fill-rule:evenodd;stroke:#000000;stroke-width:1pt"
         d="m 5.77,0 -8.65,5 0,-10 8.65,5 z"
         id="path4045-0" />
    </marker>
  </defs>
  <sodipodi:namedview
     id="base"
     pagecolor="#ffffff"
     bordercolor="#666666"
     borderopacity="1.0"
     inkscape:pageopacity="0.0"
     inkscape:pageshadow="2"
     inkscape:zoom="2.1692372"
     inkscape:cx="287.29442"
     inkscape:cy="264.05176"
     inkscape:document-units="px"
     inkscape:current-layer="layer1"
     showgrid="true"
     showguides="false"
     inkscape:window-width="1366"
     inkscape:window-height="724"
     inkscape:window-x="58"
     inkscape:window-y="6"
     inkscape:window-maximized="0"
     inkscape:snap-global="true"
     fit-margin-top="0"
     fit-margin-left="0"
     fit-margin-right="0"
     fit-margin-bottom="0">
    <inkscape:grid
       type="xygrid"
       id="grid2985"
       empspacing="5"
       visible="true"
       enabled="true"
       snapvisiblegridlinesonly="true"
       originx="-1.8565715px"
       originy="-473.79225px" />
  </sodipodi:namedview>
  <metadata
     id="metadata7">
    <rdf:RDF>
      <cc:Work
         rdf:about="">
        <dc:format>image/svg+xml</dc:format>
        <dc:type
           rdf:resource="http://purl.org/dc/dcmitype/StillImage" />
        <dc:title></dc:title>
      </cc:Work>
    </rdf:RDF>
  </metadata>
  <g
     inkscape:groupmode="layer"
     id="layer2"
     inkscape:label="Box"
     transform="translate(184.14344,-128.00003)" />
  <g
     inkscape:label="Text"
     inkscape:groupmode="layer"
     id="layer1"
     transform="translate(-1.8565715,-326.3622)"
     style="display:inline">
    <g
       id="g3300"
       transform="matrix(0.6463086,0,0,0.6463086,1.2102621,380.73143)"
       style="stroke-width:6;stroke-miterlimit:4;stroke-dasharray:none">
      <g
         transform="translate(-108.71888,67.984336)"
         id="layer1-5"
         inkscape:label="Layer 1"
         style="stroke-width:6;stroke-miterlimit:4;stroke-dasharray:none">
        <path
           transform="matrix(0.9,0,0,0.9,-22.1,14.46218)"
           d="m 369,31 c 0,55.228475 -44.77153,100 -100,100 -55.22847,0 -100,-44.771525 -100,-100 0,-55.228475 44.77153,-100 100,-100 55.22847,0 100,44.771525 100,100 z"
           sodipodi:ry="100"
           sodipodi:rx="100"
           sodipodi:cy="31"
           sodipodi:cx="269"
           id="path3116"
           style="fill:none;stroke:#000000;stroke-width:6.66666651;stroke-miterlimit:4;stroke-opacity:1;stroke-dasharray:none"
           sodipodi:type="arc" />
      </g>
      <g
         transform="translate(306.29071,219.34651)"
         inkscape:label="Node"
         id="layer2-1"
         style="stroke-width:6;stroke-miterlimit:4;stroke-dasharray:none">
        <path
           transform="matrix(0.69124424,0,0,0.69124424,-81.085928,-12.917057)"
           d="m -270.00958,-139 c 0,13.80712 -11.19288,25 -25,25 -13.80712,0 -25,-11.19288 -25,-25 0,-13.80712 11.19288,-25 25,-25 13.80712,0 25,11.19288 25,25 z"
           sodipodi:ry="25"
           sodipodi:rx="25"
           sodipodi:cy="-139"
           sodipodi:cx="-295.00958"
           id="path4006"
           style="fill:#ffffff;fill-opacity:1;stroke:#000000;stroke-width:8.68000031;stroke-miterlimit:4;stroke-opacity:1;stroke-dasharray:none"
           sodipodi:type="arc" />
        <path
           transform="matrix(0.76804916,0,0,0.76804916,-25.277188,-23.36252)"
           d="m -80.00959,-111.5 c 0,12.426407 -10.073593,22.5 -22.5,22.5 -12.42641,0 -22.5,-10.073593 -22.5,-22.5 0,-12.42641 10.07359,-22.5 22.5,-22.5 12.426407,0 22.5,10.07359 22.5,22.5 z"
           sodipodi:ry="22.5"
           sodipodi:rx="22.5"
           sodipodi:cy="-111.5"
           sodipodi:cx="-102.50959"
           id="path4041"
           style="fill:#ffffff;fill-opacity:1;stroke:#000000;stroke-width:7.8119998;stroke-miterlimit:4;stroke-opacity:1;stroke-dasharray:none"
           sodipodi:type="arc" />
        <path
           transform="matrix(0.63078217,0,0,0.63078217,-17.307582,-127.66779)"
           d="m -255.00958,-111.5 c 0,15.187831 -12.31217,27.5 -27.5,27.5 -15.18783,0 -27.5,-12.312169 -27.5,-27.5 0,-15.18783 12.31217,-27.5 27.5,-27.5 15.18783,0 27.5,12.31217 27.5,27.5 z"
           sodipodi:ry="27.5"
           sodipodi:rx="27.5"
           sodipodi:cy="-111.5"
           sodipodi:cx="-282.50958"
           id="path4090"
           style="fill:#ffffff;fill-opacity:1;stroke:#000000;stroke-width:9.51200008;stroke-miterlimit:4;stroke-opacity:1;stroke-dasharray:none"
           sodipodi:type="arc" />
        <path
           transform="matrix(0.5790388,0,0,0.5790388,-82.091476,92.333528)"
           d="m -165.00958,-194 c 0,16.56854 -13.43146,30 -30,30 -16.56855,0 -30,-13.43146 -30,-30 0,-16.56854 13.43145,-30 30,-30 16.56854,0 30,13.43146 30,30 z"
           sodipodi:ry="30"
           sodipodi:rx="30"
           sodipodi:cy="-194"
           sodipodi:cx="-195.00958"
           id="path4114"
           style="fill:#ffffff;fill-opacity:1;stroke:#000000;stroke-width:10.36199951;stroke-miterlimit:4;stroke-opacity:1;stroke-dasharray:none"
           sodipodi:type="arc" />
        <path
           transform="matrix(0.63078217,0,0,0.63078217,-72.653671,21.832212)"
           d="m -260.00958,-111.5 c 0,15.187831 -12.31217,27.5 -27.5,27.5 -15.18783,0 -27.5,-12.312169 -27.5,-27.5 0,-15.18783 12.31217,-27.5 27.5,-27.5 15.18783,0 27.5,12.31217 27.5,27.5 z"
           sodipodi:ry="27.5"
           sodipodi:rx="27.5"
           sodipodi:cy="-111.5"
           sodipodi:cx="-287.50958"
           id="path4138"
           style="fill:#ffffff;fill-opacity:1;stroke:#000000;stroke-width:9.51200008;stroke-miterlimit:4;stroke-opacity:1;stroke-dasharray:none"
           sodipodi:type="arc" />
        <path
           transform="matrix(0.63078217,0,0,0.63078217,55.846324,21.332212)"
           d="m -260.00958,-111.5 c 0,15.187831 -12.31217,27.5 -27.5,27.5 -15.18783,0 -27.5,-12.312169 -27.5,-27.5 0,-15.18783 12.31217,-27.5 27.5,-27.5 15.18783,0 27.5,12.31217 27.5,27.5 z"
           sodipodi:ry="27.5"
           sodipodi:rx="27.5"
           sodipodi:cy="-111.5"
           sodipodi:cx="-287.50958"
           id="path4151"
           style="fill:#ffffff;fill-opacity:1;stroke:#000000;stroke-width:9.51200008;stroke-miterlimit:4;stroke-opacity:1;stroke-dasharray:none"
           sodipodi:type="arc" />
        <path
           transform="matrix(0.5790388,0,0,0.5790388,-87.08279,-51.307804)"
           d="m -260.00958,-204 c 0,16.56854 -13.43146,30 -30,30 -16.56855,0 -30,-13.43146 -30,-30 0,-16.56854 13.43145,-30 30,-30 16.56854,0 30,13.43146 30,30 z"
           sodipodi:ry="30"
           sodipodi:rx="30"
           sodipodi:cy="-204"
           sodipodi:cx="-290.00958"
           id="path4153"
           style="fill:#ffffff;fill-opacity:1;stroke:#000000;stroke-width:10.36199951;stroke-miterlimit:4;stroke-opacity:1;stroke-dasharray:none"
           sodipodi:type="arc" />
        <path
           transform="matrix(0.43598314,0,0,0.43598314,-19.46988,-90.200788)"
           d="m -225.00958,-179 c 0,22.09139 -17.90861,40 -40,40 -22.09139,0 -40,-17.90861 -40,-40 0,-22.09139 17.90861,-40 40,-40 22.09139,0 40,17.90861 40,40 z"
           sodipodi:ry="40"
           sodipodi:rx="40"
           sodipodi:cy="-179"
           sodipodi:cx="-265.00958"
           id="path4155"
           style="fill:#ffffff;fill-opacity:1;stroke:#000000;stroke-width:13.76200008;stroke-miterlimit:4;stroke-opacity:1;stroke-dasharray:none"
           sodipodi:type="arc" />
      </g>
    </g>
    <path
       style="fill:none;stroke:#000000;stroke-width:1;stroke-linecap:butt;stroke-linejoin:miter;stroke-miterlimit:4;stroke-opacity:1;stroke-dasharray:2,1;stroke-dashoffset:0"
       d="m 145,432.3622 45,-90"
       id="path3120"
       inkscape:connector-curvature="0" />
    <path
       inkscape:connector-curvature="0"
       id="path3968"
       d="m 145,472.43311 45,90"
       style="fill:none;stroke:#000000;stroke-width:1;stroke-linecap:butt;stroke-linejoin:miter;stroke-miterlimit:4;stroke-opacity:1;stroke-dasharray:2, 1;stroke-dashoffset:0" />
  </g>
</svg>
